<?xml version="1.0" standalone="no"?>
<!DOCTYPE svg PUBLIC "-//W3C//DTD SVG 1.1//EN" "http://www.w3.org/Graphics/SVG/1.1/DTD/svg11.dtd" >
<svg xmlns="http://www.w3.org/2000/svg">
<defs>
  <font id="fd" horiz-adv-x="256">
    <font-face font-family="fd"
      units-per-em="256" ascent="256"
      descent="0" />
    <missing-glyph horiz-adv-x="0" />
    <glyph glyph-name="cloud-download-95"
      unicode="&#xEA02;"
      horiz-adv-x="256" d="M107.66 220.013C84.391 215.816 64.714 203.215 50.392 183.34C42.95 173.013 38.727 162.31 35.461 145.5C35.238 144.354 33.115 142.469 30.491 141.087C17.5 134.245 8.118 122.544 4.361 108.5C2.347 100.971 2.641 88.372 5.009 80.705C10.556 62.747 27.593 48.428 46.303 45.997C50.261 45.483 58.36 45.048 64.3 45.031C76.38 44.996 80.397 46.284 82.088 50.732C83.281 53.869 81.688 58.562 78.929 60.038C77.94 60.567 71.785 61 65.249 61C44.602 61 35.726 63.922 27.364 73.473C20.996 80.745 18.705 87.509 19.213 97.541C19.946 112.035 28.035 123.164 41.607 128.35C49.247 131.269 50.994 133.303 51.007 139.297C51.021 145.509 55.121 159.546 59.05 166.83C64.094 176.182 68.833 181.965 77 188.736C89.988 199.504 105.534 205.017 122.815 204.983C134.909 204.958 143.924 202.822 154.997 197.356C162.919 193.445 165.905 191.241 172.997 184.071C177.674 179.344 182.994 172.932 184.821 169.823C188.958 162.779 192.811 151.557 193.636 144.143C194.496 136.411 196.36 132.184 199.184 131.558C200.458 131.276 204.397 130.55 207.937 129.945C216.72 128.443 222.906 125.072 228.406 118.79C234.928 111.342 237.264 104.603 236.826 94.5C236.428 85.311 234.188 79.767 228.059 72.804C220.259 63.943 210.956 61 190.751 61C184.215 61 178.06 60.567 177.071 60.038C174.312 58.562 172.719 53.869 173.912 50.732C175.603 46.284 179.62 44.996 191.7 45.031C215.354 45.098 226.602 48.785 238.194 60.268C248.499 70.478 253 81.34 253 96C253 119.363 238.223 138.695 215.526 145.024L209.552 146.69L208.351 152.623C202.283 182.601 177.229 209.256 146.829 218.076C138.614 220.459 116.261 221.564 107.66 220.013M122.455 154.545L120 152.091L120 117.856L120 83.62L109.645 93.81C100.878 102.437 98.801 104 96.1 104C91.822 104 88 100.166 88 95.874C88 93.039 90.163 90.486 106.258 74.329C122.964 57.558 124.812 56 128 56C131.188 56 133.036 57.558 149.742 74.329C165.837 90.486 168 93.039 168 95.874C168 100.166 164.178 104 159.9 104C157.199 104 155.122 102.437 146.355 93.81L136 83.62L136 117.856L136 152.091L133.545 154.545C131.998 156.093 129.948 157 128 157C126.052 157 124.002 156.093 122.455 154.545" />
    <glyph glyph-name="home-minimal"
      unicode="&#xEA03;"
      horiz-adv-x="256" d="M123.718 241.245C122.188 240.285 97.352 220.6 68.526 197.5C33.385 169.339 15.603 154.462 14.558 152.349C13.193 149.587 13 140.671 13 80.248C13 9.104 13.162 6.054 17.039 3.979C18.145 3.387 34.728 3 58.98 3L99.091 3L101.545 5.455L104 7.909L104 42.455L104 77L128 77L152 77L152 42.455L152 7.909L154.455 5.455L156.909 3L197.02 3C221.272 3 237.855 3.387 238.961 3.979C242.838 6.054 243 9.104 243 80.248C243 140.785 242.809 149.582 241.436 152.349C240.39 154.456 222.516 169.409 187.464 197.5C133.636 240.639 130.563 242.989 128 242.989C127.175 242.989 125.248 242.204 123.718 241.245M177.509 184.75L226.5 145.5L226.757 82.25L227.015 19L197.507 19L168 19L168 53.545L168 88.091L165.545 90.545L163.091 93L128 93L92.909 93L90.455 90.545L88 88.091L88 53.545L88 19L58.493 19L28.985 19L29.243 82.25L29.5 145.5L78.491 184.75C105.436 206.337 127.715 224 128 224C128.285 224 150.564 206.337 177.509 184.75" />
    <glyph glyph-name="single-04"
      unicode="&#xEA04;"
      horiz-adv-x="256" d="M113.217 251.551C92.494 246.533 73.377 227.427 68.537 206.897C66.129 196.681 66.413 164.615 69.001 154.496C72.185 142.047 80.076 130.4 91.018 122C94.242 119.525 96.906 116.698 96.94 115.718C97.049 112.502 92.952 101.828 89.593 96.579C83.963 87.776 80.802 85.714 61.24 78.08C30.263 65.992 17.273 50.402 14.043 21.434C12.849 10.721 13.692 5.77 17.014 3.992C19.559 2.63 236.441 2.63 238.986 3.992C242.308 5.77 243.151 10.721 241.957 21.434C238.808 49.669 226.739 64.76 197.577 76.927C192.585 79.01 186.335 81.501 183.689 82.463C177.005 84.893 171.152 89.6 166.816 96.034C163.233 101.348 158.938 112.279 159.06 115.771C159.094 116.722 161.758 119.525 164.982 122C175.924 130.4 183.815 142.047 186.999 154.496C189.587 164.615 189.871 196.681 187.463 206.897C183.619 223.204 170.408 239.403 154.923 246.798C150.29 249.01 144.115 251.31 141.201 251.91C134.238 253.342 119.853 253.158 113.217 251.551M147.091 232.777C158.798 226.954 167.034 217.773 170.933 206.199C172.726 200.878 173 197.616 173 181.637C173 159.875 171.646 153.814 164.667 144.334C159.369 137.137 155.415 133.743 147.921 129.96C135.768 123.825 120.232 123.825 108.079 129.96C100.585 133.743 96.631 137.137 91.333 144.334C84.354 153.814 83 159.875 83 181.637C83 197.529 83.28 200.895 85.037 206.11C89.689 219.92 99.943 230.068 114.487 235.256C118.327 236.626 121.861 236.976 129.591 236.753C138.92 236.483 140.241 236.183 147.091 232.777M128 109.5C131.575 109.5 136.594 109.859 139.154 110.297L143.808 111.094L144.482 107.106C145.353 101.952 151.092 90.005 155.736 83.678C161.357 76.022 169.302 70.825 184.243 65.033C210.741 54.762 219.946 46.575 224.423 29.296C225.291 25.949 226 22.264 226 21.106L226 19L128 19L30 19L30 21.106C30 22.264 30.709 25.949 31.577 29.296C36.054 46.575 45.259 54.762 71.757 65.033C86.755 70.847 94.643 76.022 100.342 83.785C104.741 89.777 110.532 101.944 111.53 107.293L112.239 111.087L116.869 110.293C119.416 109.857 124.425 109.5 128 109.5" />
    <glyph glyph-name="users-mm"
      unicode="&#xEA05;"
      horiz-adv-x="256" d="M158.773 230.445C152.73 228.98 143.603 224.785 142.47 222.951C142.1 222.354 141.753 220.262 141.697 218.304C141.62 215.584 142.247 214.184 144.354 212.372C147.718 209.478 149.433 209.417 154.515 212.008C156.68 213.112 161.019 214.545 164.157 215.193C171.228 216.654 181.502 215.04 187.534 211.522C193.875 207.823 200.434 200.128 202.928 193.462C204.99 187.952 205.123 186.193 204.787 169.013C204.315 144.945 203.428 142.896 187.635 129.391C184.02 126.3 184 126.24 184.022 118.391C184.046 109.616 185.931 104.163 190.344 100.098C191.778 98.778 202.75 93.753 214.726 88.932L236.5 80.168L236.771 60.084L237.041 40L218.656 40C201.569 40 200.083 39.854 197.635 37.927C194.096 35.144 194.014 29.896 197.455 26.455L199.909 24L224 24L248.091 24L250.545 26.455L253 28.909L253 55.487C253 75.869 252.677 82.837 251.615 85.379C249.102 91.393 243.551 94.789 222.471 103.207C211.487 107.594 201.938 111.647 201.25 112.214C198.484 114.495 199.915 118.21 205.808 124.049C212.09 130.273 216.879 138.331 219.405 146.932C221.687 154.701 221.676 187.359 219.388 195.068C216.711 204.092 213.056 210.152 206.11 217.083C193.399 229.765 176.105 234.647 158.773 230.445M72 219.567C60.724 216.424 48.588 207.267 41.911 196.862C36.079 187.773 35 182.099 35 160.516C35 144.084 35.295 140.254 36.985 134.783C39.424 126.888 45.141 117.903 51.336 112.229C56.152 107.82 57.522 103.423 54.75 101.277C54.063 100.745 44.725 96.834 34 92.585C1.965 79.896 3 81.302 3 50.494C3 28.91 3 28.909 5.455 26.455L7.909 24L85.318 24L162.727 24L165.364 26.636L168 29.273L167.924 49.886C167.845 71.137 167.354 74.379 163.5 79.074C160.404 82.845 157.971 84.06 135.75 92.929L115 101.211L115 104.526C115 107.221 116.077 108.929 120.768 113.67C127.266 120.239 132.202 128.839 134.469 137.542C136.691 146.074 136.503 175.133 134.167 184.081C129.826 200.71 115.335 215.073 98.465 219.467C91.502 221.281 78.328 221.33 72 219.567M97.662 202.854C104.15 200.426 111.65 193.979 115.37 187.631C119.076 181.307 120.235 173.207 119.833 156.427C119.5 142.505 119.283 141.08 116.608 135.266C113.951 129.488 110.736 125.852 101.631 118.326C99.169 116.291 99 115.609 99 107.698C99 97.693 100.565 93.24 105.464 89.298C107.377 87.759 118.518 82.65 130.221 77.945L151.5 69.39L151.777 54.695L152.053 40L85.5 40L18.947 40L19.223 54.75L19.5 69.5L40.895 78.163C52.662 82.928 63.462 87.679 64.895 88.722C69.6 92.146 72 98.448 72 107.384L72 115.344L67.83 118.922C59.894 125.73 56.65 129.523 54.081 135C51.576 140.338 51.5 141.087 51.5 160.5C51.5 180.446 51.508 180.514 54.284 185.784C58.854 194.457 67.005 201.319 76 204.065C81.189 205.649 91.772 205.057 97.662 202.854" />
    <glyph glyph-name="webpage"
      unicode="&#xEA06;"
      horiz-adv-x="256" d="M6.869 241.49C5.421 240.704 3.954 239.324 3.609 238.423C2.535 235.624 2.898 19.06 3.98 17.038C4.518 16.033 6.384 14.713 8.128 14.105C12.61 12.543 243.39 12.543 247.872 14.105C249.616 14.713 251.482 16.033 252.02 17.038C253.56 19.915 253.358 236.453 251.814 238.927C251.15 239.989 249.55 241.34 248.257 241.929C246.626 242.672 209.692 242.988 127.703 242.96C27.162 242.926 9.107 242.706 6.869 241.49M237 203L237 179L128 179L19 179L19 203L19 227L128 227L237 227L237 203M37.42 211.855C34.55 210.463 32 205.824 32 201.996C32 197.453 37.553 192 42.177 192C48.476 192 52.921 196.46 52.968 202.827C53.027 210.778 44.912 215.491 37.42 211.855M69.42 211.855C66.55 210.463 64 205.824 64 201.996C64 197.453 69.553 192 74.177 192C80.476 192 84.921 196.46 84.968 202.827C85.027 210.778 76.912 215.491 69.42 211.855M66.5 96L66.5 29.5L42.75 29.232L19 28.964L19 96L19 163.036L42.75 162.768L66.5 162.5L66.5 96M237 96L237 29L160 29L83 29L83 96L83 163L160 163L237 163L237 96" />
    <glyph glyph-name="layout-25"
      unicode="&#xEA07;"
      horiz-adv-x="256" d="M6.869 241.49C5.421 240.704 3.955 239.325 3.61 238.426C2.536 235.627 2.896 19.063 3.978 17.04C4.517 16.034 6.384 14.713 8.128 14.105C12.61 12.543 243.39 12.543 247.872 14.105C249.616 14.713 251.483 16.034 252.022 17.04C253.561 19.917 253.357 236.455 251.812 238.929C251.15 239.99 249.55 241.34 248.257 241.929C246.626 242.672 209.692 242.988 127.703 242.96C27.162 242.926 9.107 242.706 6.869 241.49M237 197.5L237 168L128 168L19 168L19 197.5L19 227L128 227L237 227L237 197.5M77 90.5L77 29L48 29L19 29L19 90.5L19 152L48 152L77 152L77 90.5M237 90.493L237 28.987L165.25 29.243L93.5 29.5L93.242 90.75L92.985 152L164.992 152L237 152L237 90.493" />
    <glyph glyph-name="analytics"
      unicode="&#xEA08;"
      horiz-adv-x="256" d="M16.789 230.637C15.848 229.922 14.611 228.107 14.039 226.603C12.598 222.812 12.598 33.188 14.039 29.397C16.223 23.653 22.312 22.221 26.545 26.455L29 28.909L29 128.382L29 227.855L26.365 229.927C23.389 232.268 19.332 232.569 16.789 230.637M71.5 177.869C66.865 175.278 67 177.575 67 101.263L67 28.909L69.455 26.455C72.716 23.193 76.941 23.244 80.076 26.581L82.5 29.161L82.5 101.553C82.5 172.623 82.463 173.98 80.5 175.909C77.922 178.441 74.037 179.288 71.5 177.869M178.02 177.716C172.953 175.152 173.031 176.334 173.015 101.815C173.005 55.986 173.356 31.194 174.039 29.397C176.223 23.653 182.312 22.221 186.545 26.455L189 28.909L189 100.873C189 140.453 188.72 173.565 188.379 174.455C187.794 175.98 183.047 179.017 181.3 178.985C180.86 178.977 179.384 178.406 178.02 177.716M122.455 122.545L120 120.091L120 74.691L120 29.292L122.452 26.646C125.744 23.094 130.256 23.094 133.548 26.646L136 29.292L136 74.691L136 120.091L133.545 122.545C131.998 124.093 129.948 125 128 125C126.052 125 124.002 124.093 122.455 122.545M229.174 122.686C227.007 120.379 227 120.217 227 74.64L227 28.909L229.455 26.455C232.715 23.194 236.941 23.244 240.076 26.58L242.5 29.159L242.788 72.83C242.947 96.848 242.823 117.524 242.513 118.775C241.003 124.872 233.339 127.119 229.174 122.686" />
    <glyph glyph-name="chart-pie-36"
      unicode="&#xEA09;"
      horiz-adv-x="256" d="M145.229 252.402C144.53 252.082 143.292 250.532 142.479 248.959C141.233 246.551 141 238.45 141 197.615C141 169.163 141.395 148.09 141.957 146.613C144.068 141.06 144.652 141 196.801 141C246.175 141 250.009 141.281 252.021 145.039C253.488 147.781 253.202 158.715 251.416 168.127C242.504 215.111 202.733 250.481 156.5 252.54C151 252.785 145.928 252.723 145.229 252.402M175 233.304C206.834 224.243 231.019 195.91 236.503 161.25L237.176 157L197.088 157L157 157L157 196.981L157 236.962L161.75 236.342C164.363 236.002 170.325 234.634 175 233.304M94.058 209.928C82.815 208.55 72.581 205.445 61.5 200.052C33.841 186.588 14.22 162.699 5.75 132.175C2.839 121.683 2.597 92.991 5.335 83C12.664 56.255 27.249 35.092 48.116 20.922C56.591 15.166 71.256 8.382 80.646 5.873C91.801 2.892 113.418 2.194 125.312 4.431C147.127 8.533 165.378 18.428 181.075 34.664C199.393 53.611 209.468 76.841 210.25 101.931C210.474 109.118 210.265 110.179 208.223 112.222L205.946 114.5L160.511 114.779L115.077 115.059L114.788 160.502C114.503 205.401 114.474 205.972 112.362 208.083C109.776 210.669 104.464 211.204 94.058 209.928M99 148.814C99 103.798 99.008 103.62 101.174 101.314L103.349 99L148.79 99L194.23 99L193.524 93.35C191.184 74.62 178.499 52.065 163.242 39.504C145.023 24.506 126.54 18.335 102.581 19.251C89.009 19.769 78.3 22.286 68.5 27.261C43.625 39.888 25.904 63.013 20.445 89.968C17.816 102.955 18.813 120.491 22.893 133C28.391 149.855 37.326 163.24 50.239 173.966C63.255 184.778 83.089 193.366 96.25 193.89L99 194L99 148.814" />
    <glyph glyph-name="chart-bar-33"
      unicode="&#xEA0A;"
      horiz-adv-x="256" d="M154.455 250.545C151.347 247.437 151.332 243.889 154.411 240.306L156.822 237.5L174.921 237L193.02 236.5L160.512 204.008L128.004 171.516L109.252 190.151C98.938 200.401 89.497 209.296 88.271 209.918C87.044 210.54 84.978 210.782 83.679 210.456C82.38 210.13 68.421 196.938 52.658 181.142C21.654 150.069 21.564 149.944 26.342 144.389C27.993 142.47 29.638 141.667 31.918 141.667C34.809 141.667 37.788 144.302 60.063 166.563L84.975 191.46L104.794 171.73C122.787 153.818 124.928 152 128.026 152C131.178 152 134.225 154.784 168.154 188.667L204.87 225.334L205.185 207.245C205.491 189.684 205.571 189.08 207.924 186.578C211.06 183.244 215.286 183.195 218.545 186.455L221 188.909L221 218.955C221 247.667 220.911 249.089 219 251C217.089 252.911 215.667 253 186.955 253L156.909 253L154.455 250.545M197.174 154.686L195 152.371L195 79.86L195 7.349L197.314 5.174C199.561 3.063 200.347 3 224.242 3L248.855 3L250.927 5.635C252.981 8.245 253 8.941 253 80.461L253 152.651L250.686 154.826C248.439 156.936 247.65 157 223.86 157C199.532 157 199.332 156.983 197.174 154.686M237 80L237 19L224 19L211 19L211 80L211 141L224 141L237 141L237 80M103.5 113.845C98.923 111.342 99 112.292 99 58.483L99 7.349L101.314 5.174C103.561 3.063 104.347 3 128.242 3L152.855 3L154.927 5.635C156.963 8.223 156.999 9.169 156.968 58.885C156.935 112.272 157.014 111.334 152.316 113.837C149.399 115.39 106.339 115.398 103.5 113.845M141 59L141 19L128 19L115 19L115 59L115 99L128 99L141 99L141 59M5.635 69.927L3 67.855L3 37.602L3 7.349L5.314 5.174C7.561 3.064 8.35 3 32.14 3C56.468 3 56.668 3.017 58.826 5.314C60.957 7.584 61 8.211 61 37.36L61 67.091L58.545 69.545L56.091 72L32.18 72C9.505 72 8.134 71.893 5.635 69.927M45 37.5L45 19L32 19L19 19L19 37.5L19 56L32 56L45 56L45 37.5" />
    <glyph glyph-name="single-copy-06"
      unicode="&#xEA0B;"
      horiz-adv-x="256" d="M69.174 250.686C65.186 246.441 66.699 239.998 72.128 238.105C76.548 236.565 179.452 236.565 183.872 238.105C189.394 240.03 190.905 246.862 186.686 250.826L184.371 253L127.86 253L71.349 253L69.174 250.686M26.923 208.077L24 205.154L24 106.531L24 7.909L26.455 5.455L28.909 3L128 3L227.091 3L229.545 5.455L232 7.909L232 106.531L232 205.154L229.077 208.077L226.154 211L128 211L29.846 211L26.923 208.077M216 107L216 19L128 19L40 19L40 107L40 195L128 195L216 195L216 107" />
    <glyph glyph-name="home"
      unicode="&#xEA0C;"
      horiz-adv-x="256" d="M124.988 241.676C122.067 240.152 6.099 145.418 4.282 143.073C2.253 140.453 2.762 135.572 5.314 133.174C10.624 128.187 9.375 127.34 70.675 177.476C101.929 203.038 127.725 223.954 128 223.956C128.275 223.958 154.056 203.044 185.292 177.48C234.581 137.14 242.518 131 245.368 131C251.331 131 255.269 138.488 251.718 143.073C249.901 145.418 133.933 240.152 131.012 241.676C127.935 243.283 128.065 243.283 124.988 241.676M37.174 122.686L35 120.371L35 63.86L35 7.349L37.314 5.174L39.629 3L128.242 3L216.855 3L218.927 5.635C220.968 8.229 221 9.128 221 64.461L221 120.651L218.686 122.826C216.405 124.968 212.714 125.595 209.545 124.379C205.155 122.694 205 120.786 205 68.55L205 19L181 19L157 19L156.968 48.25C156.945 69.665 156.61 77.925 155.718 79.087C152.994 82.635 150.41 83 128.016 83C104.971 83 101.129 82.385 99.621 78.455C99.28 77.565 99 63.823 99 47.918L99 19L75 19L51 19L51 68.55C51 120.786 50.845 122.694 46.455 124.379C43.133 125.654 39.307 124.955 37.174 122.686M141 43L141 19L128 19L115 19L115 43L115 67L128 67L141 67L141 43" />
    <glyph glyph-name="single-content-03"
      unicode="&#xEA0D;"
      horiz-adv-x="256" d="M26.455 250.545L24 248.091L24 128L24 7.909L26.455 5.455L28.909 3L128 3L227.091 3L229.545 5.455L232 7.909L232 128L232 248.091L229.545 250.545L227.091 253L128 253L28.909 253L26.455 250.545M216 128L216 19L128 19L40 19L40 128L40 237L128 237L216 237L216 128M69.174 186.686C65.186 182.441 66.699 175.998 72.128 174.105C76.548 172.565 179.452 172.565 183.872 174.105C189.394 176.03 190.905 182.862 186.686 186.826L184.371 189L127.86 189L71.349 189L69.174 186.686M69.635 133.927C66.096 131.144 66.014 125.896 69.455 122.455L71.909 120L128 120L184.091 120L186.545 122.455C189.986 125.896 189.904 131.144 186.365 133.927C183.771 135.968 182.867 136 128 136C73.133 136 72.229 135.968 69.635 133.927M71.5 81.845C66.442 79.079 65.373 72.877 69.314 69.174C71.561 67.064 72.35 67 96.14 67C120.468 67 120.668 67.017 122.826 69.314C126.509 73.235 125.595 79.124 120.928 81.537C117.387 83.369 74.771 83.634 71.5 81.845" />
    <glyph glyph-name="bell-53"
      unicode="&#xEA0E;"
      horiz-adv-x="256" d="M111.197 251.535C85.765 245.762 65.824 230.284 54.467 207.5C46.178 190.874 45.819 188.332 44.984 140.5C44.337 103.457 44.009 97.438 42.202 89.5C39.444 77.382 35.855 67.628 29.396 54.691C26.428 48.747 24 42.989 24 41.896C24 40.803 25.105 38.805 26.455 37.455L28.909 35L128 35L227.091 35L229.545 37.455C230.895 38.805 232 40.837 232 41.971C232 43.105 229.507 49.005 226.459 55.081C223.412 61.157 219.619 70.037 218.031 74.814C212.092 92.682 211.825 95.176 211.015 140.5C210.159 188.333 209.791 190.934 201.533 207.5C191.336 227.955 174.93 241.978 152.667 249.266C144.8 251.841 141.657 252.316 130.5 252.616C121.659 252.853 115.483 252.508 111.197 251.535M141.201 235.923C154.994 233.118 164.111 228.038 175.088 217.038C181.59 210.524 184.563 206.618 187.323 200.966C194.06 187.173 194.205 186.01 195.041 139C195.829 94.657 196.14 91.319 201 74.999C202.17 71.07 204.674 64.189 206.564 59.708C208.454 55.227 210 51.435 210 51.28C210 51.126 173.1 51 128 51C82.9 51 46 51.126 46 51.28C46 51.435 47.546 55.227 49.436 59.708C51.326 64.189 53.83 71.07 55 74.999C59.83 91.217 60.146 94.655 60.942 139.5C61.663 180.176 61.826 182.878 63.95 189.5C67.678 201.121 71.834 207.845 80.992 217.072C91.7 227.86 99.531 232.372 113 235.513C119.921 237.126 134.255 237.335 141.201 235.923M99.986 17.027C102.89 11.336 108.468 6.142 114.914 3.126C119.376 1.039 122.013 0.512 128.021 0.507C140.538 0.496 150.731 6.691 156.389 17.75L158.051 21L128.005 21L97.959 21L99.986 17.027" />
    <glyph glyph-name="email-84"
      unicode="&#xEA0F;"
      horiz-adv-x="256" d="M21.329 229.907C14.845 227.414 8.554 221.386 5.427 214.671L3.02 209.5L3.02 128L3.02 46.5L5.427 41.329C8.621 34.47 14.873 28.565 21.613 26.044C26.981 24.035 28.807 24 128 24C227.193 24 229.019 24.035 234.387 26.044C241.127 28.565 247.379 34.47 250.573 41.329L252.98 46.5L252.98 128L252.98 209.5L250.573 214.671C247.379 221.53 241.127 227.435 234.387 229.956C229.015 231.966 227.26 231.999 127.712 231.948C29.164 231.897 26.364 231.843 21.329 229.907M221.977 213.613C211.551 203.568 128.731 129 128 129C127.269 129 44.449 203.568 34.023 213.613L31.545 216L128 216L224.455 216L221.977 213.613M72.285 157.289C100.407 131.716 124.447 110.4 125.708 109.921C127.007 109.427 128.99 109.426 130.285 109.918C131.541 110.396 155.954 131.995 184.535 157.916L236.5 205.045L236.756 127.376C236.997 54.293 236.907 49.523 235.222 46.603C234.238 44.896 231.872 42.713 229.966 41.752C226.736 40.122 219.797 40.003 128.218 40.002C19.987 40 24.975 39.712 21.026 46.19C19.047 49.435 19.007 51.03 19.004 127.309C19.001 182.653 19.311 204.926 20.077 204.452C20.67 204.086 44.163 182.863 72.285 157.289" />
    <glyph glyph-name="send"
      unicode="&#xEA10;"
      horiz-adv-x="256" d="M124.12 199.115C26.254 159.731 15.601 155.227 14.306 152.69C11.565 147.316 12.999 145.807 40.572 125.033L66.5 105.5L67 66.661L67.5 27.822L69.861 25.911C72.902 23.449 76.077 23.486 79.299 26.021C80.712 27.132 89.382 37.058 98.565 48.078C108.458 59.95 115.781 67.914 116.538 67.624C117.24 67.354 134.113 54.919 154.032 39.99C193.237 10.606 192.667 10.916 197.565 16.378C200.466 19.613 243.682 234.857 242.045 237.916C240.585 240.643 236.964 243.027 234.527 242.865C233.412 242.791 183.729 223.104 124.12 199.115M204.475 124.846C194.759 76.256 186.639 36.325 186.431 36.11C185.956 35.62 90.1 107.264 90.042 108.152C89.988 108.988 221.287 214.046 221.776 213.558C221.977 213.356 214.192 173.436 204.475 124.846M185 205.598C185 204.41 76.83 118.896 75.677 119.172C74.152 119.536 38.093 146.207 38.053 147C38.03 147.461 182.562 205.697 184.25 205.907C184.662 205.958 185 205.819 185 205.598M93.75 85.118C98.287 81.704 102 78.522 102 78.047C102 77.353 87.477 59.297 83.905 55.55C83.363 54.981 83 62.353 83 73.922C83 89.226 83.26 93.045 84.25 92.285C84.938 91.757 89.213 88.532 93.75 85.118" />
    <glyph glyph-name="at-sign"
      unicode="&#xEA11;"
      horiz-adv-x="256" d="M107.116 250.541C79.264 244.709 59.941 234.913 42.947 218.008C9.524 184.761 -5.649 125.049 7.956 80.299C13.267 62.832 21.113 49.824 34.454 36.367C51.097 19.579 66.685 11.296 91.615 5.994C104.276 3.301 132.336 2.228 146.483 3.896C162.448 5.779 181.36 10.171 191.078 14.252C198.023 17.168 198.389 25.609 191.708 28.811C189.299 29.966 188.115 29.874 182.717 28.115C161.341 21.148 143.423 18.649 119.5 19.297C99.295 19.845 88.302 21.981 73.465 28.243C48.341 38.845 29.376 61.231 21.774 89.257C18.76 100.373 18.51 128.854 21.312 142C25.248 160.468 34.911 182.769 44.493 195.5C61.294 217.821 83.732 230.722 114.222 235.591C129.489 238.029 153.188 237.108 165.856 233.584C190.316 226.781 206.246 216.919 218.486 201C230.935 184.81 237.056 167.183 237.239 147C237.516 116.3 229.209 92.762 215.643 85.807C209.846 82.836 198.561 82.155 193.932 84.497C186.707 88.154 183.358 92.969 180.577 103.704C178.04 113.495 178.767 138.252 182.505 169.367C184.6 186.808 184.824 186.545 163.5 191.62C153.525 193.995 130.606 194.083 122.283 191.779C97.782 184.997 81.555 168.05 74.502 141.874C65.012 106.66 76.587 78.605 104.58 68.972C122.928 62.658 149.001 70.344 163.838 86.44L167.993 90.948L170.558 85.886C176.38 74.396 186.298 67.941 199.288 67.189C226.276 65.627 243.73 82.374 250.511 116.338C258.9 158.361 249.293 193.655 222.114 220.659C210.581 232.117 198.325 239.615 182 245.199C165.676 250.784 157.046 252.198 137 252.576C120.524 252.886 117.255 252.664 107.116 250.541M161 175.914C164.025 175.214 166.584 174.601 166.687 174.55C166.79 174.5 166.234 168.393 165.45 160.979C164.667 153.566 163.738 139.85 163.387 130.5C162.766 113.98 162.66 113.331 159.624 107.528C151.591 92.172 131.569 80.574 116.37 82.473C109.217 83.367 99.825 88.218 95.527 93.239C85.747 104.665 84.573 125.498 92.573 145.64C95.96 154.167 99.337 159.174 105.735 165.157C112.258 171.256 120.856 175.414 131 177.374C135.331 178.211 155.262 177.241 161 175.914" />
    <glyph glyph-name="edit-72"
      unicode="&#xEA13;"
      horiz-adv-x="256" d="M167.07 220.557C154.656 208.213 117.452 170.975 84.392 137.807L24.285 77.5L18.659 49.102C10.685 8.855 8.943 10.665 48.111 18.509C63.175 21.526 76.645 24.462 78.045 25.033C81.674 26.515 240.673 185.891 241.957 189.334C242.775 191.525 242.662 192.909 241.462 195.439C239.153 200.305 194.624 243 191.859 243C190.303 243 182.891 236.289 167.07 220.557M208.004 207.496L223.484 191.992L207.742 176.25L192 160.508L176.258 176.25L160.516 191.992L175.996 207.496C184.51 216.023 191.712 223 192 223C192.288 223 199.49 216.023 208.004 207.496M164.63 165.392C173.084 157.358 180 150.269 180 149.639C180 149.009 155.363 123.88 125.25 93.798L70.5 39.103L51.645 35.49C41.275 33.502 32.581 32.086 32.325 32.342C32.069 32.598 33.524 41.288 35.559 51.654L39.258 70.5L93.876 125.25C123.915 155.362 148.666 180 148.877 180C149.088 180 156.177 173.426 164.63 165.392" />
    <glyph glyph-name="tail-right"
      unicode="&#xEA14;"
      horiz-adv-x="256" d="M154.923 208.077C149.151 202.304 148.842 202.736 183.729 167.786L215.458 136L116.979 135.968C37.77 135.943 18.165 135.682 16.789 134.637C12.655 131.495 12.655 124.505 16.789 121.363C18.165 120.318 37.77 120.057 116.979 120.032L215.458 120L183.729 88.214C149.413 53.836 149.525 53.988 154.342 48.389C155.947 46.523 157.651 45.667 159.76 45.667C162.461 45.667 167.581 50.324 201.845 83.95C223.3 105.006 241.391 123.531 242.048 125.117C242.973 127.35 242.974 128.649 242.05 130.879C240.257 135.209 162.624 211 159.983 211C158.808 211 156.531 209.685 154.923 208.077" />
    <glyph glyph-name="minimal-right"
      unicode="&#xEA15;"
      horiz-adv-x="256" d="M71.5 241.869C68.314 240.088 67 237.866 67 234.257C67 231.158 70.971 226.903 118.172 179.434L169.344 127.972L118.172 76.604C72.077 30.334 67 24.921 67 22.053C67 17.633 68.432 15.394 72.069 14.126C74.478 13.286 75.779 13.36 77.84 14.452C79.303 15.229 104.912 40.316 134.75 70.203C185.626 121.163 189 124.759 189 128.025C189 131.293 185.604 134.899 133.75 186.699C98.903 221.51 77.577 242.093 76 242.439C74.625 242.741 72.6 242.484 71.5 241.869" />
    <glyph glyph-name="tail-left"
      unicode="&#xEA16;"
      horiz-adv-x="256" d="M54.532 172.474C32.911 151.285 14.667 132.61 13.989 130.974C13.016 128.624 13.014 127.379 13.983 125.04C14.658 123.412 32.741 104.887 54.168 83.873C88.483 50.221 93.496 45.667 96.222 45.667C98.35 45.667 100.048 46.517 101.658 48.389C106.475 53.988 106.587 53.836 72.271 88.214L40.542 120L139.097 120L237.651 120L239.677 122.25C242.516 125.404 243.103 127.598 241.933 130.677C239.83 136.208 245.158 135.934 139.021 135.968L40.542 136L72.271 167.786C107.158 202.736 106.849 202.304 101.077 208.077C99.469 209.685 97.184 211 95.998 211C94.508 211 81.706 199.107 54.532 172.474" />
    <glyph glyph-name="minimal-left"
      unicode="&#xEA17;"
      horiz-adv-x="256" d="M179 242.313C178.175 242.022 152.637 216.971 122.25 186.645C70.385 134.885 67 131.293 67 128.025C67 124.759 70.374 121.163 121.25 70.203C151.088 40.316 176.697 15.229 178.16 14.452C181.34 12.766 186.452 14.107 188.021 17.039C191.04 22.68 191.83 21.746 137.834 76.384L86.669 128.16L128.615 170.33C187.368 229.396 189.007 231.141 188.968 234.615C188.909 240.008 183.752 243.99 179 242.313" />
    <glyph glyph-name="tail-up"
      unicode="&#xEA18;"
      horiz-adv-x="256" d="M86.278 204.254C64.705 182.939 46.606 164.266 46.056 162.759C44.259 157.832 48.234 152 53.388 152C56.042 152 60.456 156.021 88.214 183.729L120 215.458L120 117.285L120 19.112L122.342 16.389C125.555 12.654 130.445 12.654 133.658 16.389L136 19.112L136 117.285L136 215.458L167.786 183.729C195.544 156.021 199.958 152 202.612 152C208.189 152 211.945 158.206 209.494 163.372C208.661 165.127 190.612 183.648 169.384 204.531C140.49 232.956 130.124 242.564 128.144 242.754C125.879 242.971 119.882 237.457 86.278 204.254" />
    <glyph glyph-name="minimal-up"
      unicode="&#xEA19;"
      horiz-adv-x="256" d="M69.359 133.85C36.896 101.407 13.998 77.767 13.743 76.435C13.18 73.493 15.308 68.48 17.471 67.65C23.064 65.503 22.536 65.045 76.268 118.75L128.043 170.5L179.422 119C210.404 87.946 231.676 67.368 233.003 67.167C238.837 66.285 243.336 70.79 242.257 76.435C242.002 77.767 219.104 101.407 186.641 133.85C135.015 185.445 131.235 189 128 189C124.765 189 120.985 185.445 69.359 133.85" />
    <glyph glyph-name="minimal-down"
      unicode="&#xEA1A;"
      horiz-adv-x="256" d="M17.229 188.331C15.166 187.501 12.91 182.206 13.544 179.681C13.867 178.393 38.892 152.598 69.336 122.173C120.983 70.557 124.765 67 128 67C131.235 67 135.017 70.557 186.664 122.173C217.108 152.598 242.133 178.393 242.456 179.681C243.138 182.399 240.802 187.478 238.455 188.379C232.947 190.493 233.357 190.849 179.754 137.254L128 85.507L76.246 137.254C30.313 183.18 24.156 188.991 21.496 188.921C19.848 188.878 17.928 188.612 17.229 188.331" />
    <glyph glyph-name="tail-down"
      unicode="&#xEA1B;"
      horiz-adv-x="256" d="M122.923 240.077L120 237.154L120 138.848L120 40.542L88.214 72.271C60.456 99.979 56.042 104 53.388 104C47.749 104 44.058 97.788 46.561 92.513C48.181 89.098 122.63 15.202 126.067 13.597C127.217 13.06 128.777 13.06 129.919 13.597C133.3 15.188 207.896 89.26 209.481 92.601C211.944 97.792 208.203 104 202.612 104C199.958 104 195.544 99.979 167.786 72.271L136 40.542L136 138.848L136 237.154L133.077 240.077C131.469 241.685 129.185 243 128 243C126.815 243 124.531 241.685 122.923 240.077" />
    <glyph glyph-name="settings-gear-64"
      unicode="&#xEA1C;"
      horiz-adv-x="256" d="M101.155 250.665C99.311 248.702 98.628 245.71 96.877 231.915C95.731 222.887 94.728 215.44 94.647 215.366C94.566 215.293 90.869 213.416 86.432 211.196C81.994 208.977 76.318 205.599 73.819 203.692L69.275 200.223L54.042 206.611C45.664 210.125 37.777 213 36.516 213C35.254 213 33.317 212.212 32.211 211.25C28.952 208.414 8.839 172.845 8.32 169C8.04 166.927 8.388 164.807 9.174 163.801C9.903 162.867 16.064 157.865 22.864 152.686L35.229 143.269L35.229 127.926L35.229 112.583L22.462 102.895C15.44 97.566 9.263 92.434 8.735 91.491C8.207 90.547 8.01 88.363 8.298 86.638C8.911 82.963 29.26 47.318 32.211 44.75C35.369 42.002 38.473 42.655 54.397 49.419L69.294 55.747L74.331 51.934C77.102 49.837 82.882 46.406 87.176 44.311C91.47 42.215 94.987 40.05 94.993 39.5C94.998 38.95 95.896 31.56 96.989 23.077C99.792 1.319 97.195 3 128 3C158.805 3 156.208 1.319 159.011 23.077C160.104 31.56 160.998 38.95 160.999 39.501C160.999 40.051 164.578 42.262 168.95 44.413C173.323 46.565 179.107 49.995 181.803 52.036L186.706 55.747L201.603 49.419C217.533 42.653 220.618 42.004 223.817 44.75C227.051 47.527 248 84.954 248 87.955C248 91.721 246.983 92.767 233.136 103.238L220.771 112.587L220.771 127.928L220.771 143.269L233.136 152.686C246.989 163.236 248 164.281 248 168.045C248 171.046 227.051 208.473 223.817 211.25C222.696 212.213 220.746 213 219.484 213C218.223 213 210.336 210.125 201.958 206.611L186.725 200.223L182.181 203.692C179.682 205.599 174.006 208.977 169.568 211.196C165.131 213.416 161.434 215.293 161.353 215.366C161.272 215.44 160.269 222.887 159.123 231.915C156.213 254.838 158.926 253 128 253C103.462 253 103.339 252.989 101.155 250.665M142.443 234.75C142.708 233.512 143.637 226.694 144.509 219.598C145.38 212.501 146.506 205.922 147.012 204.978C147.517 204.033 150.534 202.235 153.716 200.982C161.699 197.837 169.145 193.564 176.606 187.845C180.083 185.18 183.875 183 185.032 183C186.19 183 193.493 185.688 201.263 188.972C209.032 192.257 215.487 194.844 215.607 194.722C215.727 194.6 218.967 189.029 222.806 182.342L229.788 170.184L216.986 160.528C208.859 154.398 203.971 150.019 203.599 148.538C203.277 147.254 203.46 143.847 204.007 140.965C205.28 134.249 205.28 121.751 204.007 115.035C203.46 112.153 203.277 108.746 203.599 107.463C203.968 105.991 208.898 101.546 216.955 95.419L229.726 85.709L222.775 73.604C218.953 66.947 215.705 61.378 215.558 61.228C215.411 61.079 208.956 63.667 201.213 66.978C193.471 70.29 186.267 73 185.205 73C184.143 73 180.174 70.707 176.387 67.905C167.479 61.315 163.026 58.757 154.722 55.458C150.995 53.977 147.528 51.987 147.019 51.035C146.509 50.083 145.38 43.499 144.509 36.402C143.637 29.306 142.708 22.487 142.443 21.25C141.972 19.047 141.67 19 128 19C114.33 19 114.028 19.047 113.557 21.25C113.292 22.488 112.363 29.306 111.491 36.402C110.62 43.499 109.491 50.083 108.981 51.035C108.472 51.987 105.005 53.977 101.278 55.458C92.974 58.757 88.521 61.315 79.613 67.905C75.826 70.707 71.857 73 70.795 73C69.733 73 62.529 70.29 54.787 66.978C47.044 63.667 40.592 61.079 40.448 61.228C40.303 61.378 37.855 65.55 35.007 70.5C32.158 75.45 28.989 80.867 27.963 82.538L26.099 85.576L38.958 95.353C47.077 101.527 52.032 105.99 52.401 107.463C52.723 108.746 52.54 112.153 51.993 115.035C50.72 121.751 50.72 134.249 51.993 140.965C52.54 143.847 52.723 147.254 52.401 148.538C52.029 150.021 47.115 154.417 38.925 160.595L26.034 170.318L27.931 173.409C28.974 175.109 32.158 180.55 35.007 185.5C37.855 190.45 40.281 194.6 40.398 194.722C40.515 194.844 46.968 192.257 54.737 188.972C62.507 185.688 69.733 183 70.795 183C71.857 183 75.788 185.26 79.529 188.021C87.668 194.029 94.47 197.903 102.284 200.982C105.466 202.235 108.483 204.033 108.988 204.978C109.494 205.922 110.62 212.501 111.491 219.598C112.363 226.694 113.292 233.512 113.557 234.75C114.028 236.953 114.33 237 128 237C141.67 237 141.972 236.953 142.443 234.75M119.932 167.043C109.359 165.133 97.135 155.712 92.15 145.633C86.935 135.088 86.935 120.946 92.15 110.339C95.165 104.206 104.206 95.165 110.339 92.15C120.946 86.935 135.054 86.935 145.661 92.15C151.794 95.165 160.835 104.206 163.85 110.339C169.065 120.946 169.065 135.088 163.85 145.633C160.362 152.686 152.195 160.552 144.815 163.965C137.804 167.208 127.737 168.454 119.932 167.043M138.622 149.177C146.993 144.873 151.434 137.53 151.429 128C151.419 106.942 126.711 96.144 111.812 110.685C98.256 123.917 103.589 145.098 121.994 151.124C125.845 152.385 134.311 151.394 138.622 149.177" />
    <glyph glyph-name="settings"
      unicode="&#xEA1D;"
      horiz-adv-x="256" d="M167.216 250.981C145.973 245.416 126.66 227.077 119.845 206C117.386 198.395 116.172 178.66 117.8 172.764C118.827 169.042 118.823 169.033 112.664 163.562L106.5 158.085L92.529 172.018L78.558 185.95L81.779 195.777C83.551 201.181 85 206.225 85 206.985C85 208.809 52.166 241.919 49.202 243.084C45.116 244.69 40.954 241.687 25.328 225.864C10.538 210.886 8.096 207.422 9.41 203.283C9.735 202.26 17.568 193.902 26.817 184.711C39.315 172.291 44.257 168 46.064 168C47.401 168 52.714 169.405 57.87 171.123L67.245 174.246L80.714 160.777L94.183 147.308L53.841 111.694C28.432 89.262 12.274 74.266 10.188 71.179C4.912 63.37 2.772 55.147 3.211 44.365C3.541 36.237 3.993 34.399 7.302 27.703C15.638 10.837 30.344 2.186 48.909 3.229C58.393 3.762 66.411 6.795 72.951 12.324C75.668 14.621 98.251 39.45 123.137 67.5C165.351 115.082 168.588 118.487 171.442 118.3C187.349 117.259 197.84 117.74 204.5 119.813C233.162 128.738 253 155.264 253 184.666C253 194.439 250.43 205.762 247.47 209.033C246.272 210.357 244.398 211 241.734 211C237.99 211 237.012 210.245 223.442 196.875L209.106 182.75L195.536 195.595L181.965 208.44L195.933 222.47C203.616 230.187 210.343 237.685 210.882 239.133C211.622 241.123 211.451 242.583 210.181 245.106C208.801 247.847 207.337 248.848 202 250.696C193.452 253.656 177.911 253.784 167.216 250.981M175.199 224.661C164.405 213.743 163 211.929 163 208.917C163 205.816 164.898 203.621 184.318 184.256C203.558 165.073 205.963 163 208.979 163C211.912 163 213.834 164.495 224.661 175.199L237 187.398L237 182.304C237 179.503 236.055 174.126 234.899 170.355C227.453 146.053 203.677 130.341 179.875 133.993C165.605 136.183 163.656 136.214 161.399 134.29C160.244 133.306 137.627 108.126 111.141 78.335C57.902 18.455 59.474 19.902 46.882 19.173C36.426 18.567 27.823 23.342 22.23 32.855C19.834 36.933 19.5 38.541 19.5 46.021C19.5 60.606 16.926 57.731 79.451 113C109.628 139.675 134.79 162.261 135.367 163.191C136.131 164.423 135.919 166.799 134.588 171.93C132.185 181.194 132.754 195.063 135.866 203.105C143.536 222.924 162.348 236.578 182.449 236.917L187.398 237L175.199 224.661M57.481 214.019L67.425 204.038L66.152 199.279C63.888 190.814 63.049 189.848 55.875 187.439L49.249 185.216L38.894 195.606L28.539 205.997L37.499 214.999C42.426 219.949 46.701 224 46.998 224C47.295 224 52.012 219.508 57.481 214.019M208.323 101.75C203.045 95.886 204.627 92.627 219.987 77.718C233.934 64.181 236.151 60.516 236.782 49.956C237.155 43.715 236.85 41.522 235.014 37.254C232.01 30.271 224.046 22.84 217.089 20.53C210.061 18.195 200.227 18.819 194.011 21.993C191.312 23.371 182.107 31.608 170.935 42.642C152.038 61.308 150.594 62.316 145.545 60.379C143.174 59.469 140.863 54.395 141.558 51.626C142.308 48.636 180.268 10.898 184.913 8.525C200.738 0.436 219.641 1.242 233.115 10.579C239.325 14.883 245.981 22.819 249.403 30C252.333 36.149 252.5 37.149 252.5 48.5C252.5 59.992 252.361 60.794 249.213 67.442C246.458 73.26 243.543 76.78 231.202 89.192C218.62 101.845 216.032 104 213.413 104C211.502 104 209.586 103.153 208.323 101.75" />
    <glyph glyph-name="menu-dots"
      unicode="&#xEA1E;"
      horiz-adv-x="256" d="M106.6666666666667 128A21.333333333333332 21.333333333333332 0 0 1 149.3333333333333 128A21.333333333333332 21.333333333333332 0 0 1 106.6666666666667 128M10.6666666666667 128A21.333333333333332 21.333333333333332 0 0 1 53.3333333333333 128A21.333333333333332 21.333333333333332 0 0 1 10.6666666666667 128M202.6666666666667 128A21.333333333333332 21.333333333333332 0 0 1 245.3333333333333 128A21.333333333333332 21.333333333333332 0 0 1 202.6666666666667 128" />
    <glyph glyph-name="funnel-40"
      unicode="&#xEA20;"
      horiz-adv-x="256" d="M16.609 240.763C10.895 235.659 9.224 238.725 55.926 168.61L99 103.943L99 61.406C99 35.572 99.384 18.15 99.979 17.039C101.767 13.698 106.606 13 128 13C149.394 13 154.233 13.698 156.021 17.039C156.616 18.15 157 35.582 157 61.436L157 104.003L199.653 167.984C245.229 236.35 244.823 235.622 240.035 240.41L237.945 242.5L128.543 242.763L19.142 243.026L16.609 240.763M218.675 225.595C218.379 224.823 200.893 198.385 179.818 166.845L141.5 109.5L141.217 69.25L140.935 29L128 29L115.065 29L114.783 69.25L114.5 109.5L76.182 166.845C55.107 198.385 37.621 224.823 37.325 225.595C36.865 226.795 50.084 227 128 227C205.916 227 219.135 226.795 218.675 225.595" />
    <glyph glyph-name="filter"
      unicode="&#xEA21;"
      horiz-adv-x="256" d="M16.025 251.025C13.093 248.093 12.835 245.924 13.182 227.163L13.5 210.003L56.25 167.247L99 124.491L99 71.68C99 39.784 99.381 18.157 99.962 17.071C100.491 16.083 102.329 14.692 104.046 13.981C107.054 12.735 107.996 13.098 129.834 23.929C142.3 30.112 153.513 36.111 154.75 37.26L157 39.349L157 81.92L157 124.491L199.75 167.247L242.5 210.003L242.818 227.163C243.165 245.924 242.907 248.093 239.975 251.025C238.032 252.968 236.194 253 128 253C19.806 253 17.968 252.968 16.025 251.025M227 227.155L227 217.31L185.533 175.985C162.727 153.257 143.377 133.206 142.533 131.429C141.234 128.691 141 122.032 141 87.83L141 47.463L128.49 41.231C121.609 37.804 115.759 35 115.49 35C115.22 35 115 55.969 115 81.599C115 121.979 114.789 128.642 113.421 131.524C112.553 133.354 93.203 153.349 70.421 175.958L29 217.065L29 227.033L29 237L128 237L227 237L227 227.155" />
    <glyph glyph-name="preferences-circle"
      unicode="&#xEA22;"
      horiz-adv-x="256" d="M63.5 251.598C50.009 247.32 40.593 237.568 35.647 222.75C35.128 221.196 33.514 221 21.206 221C8.014 221 7.244 220.889 5.174 218.686C2.871 216.233 2.355 212.073 3.979 209.039C5.585 206.039 10.612 205 23.531 205L35.763 205L36.861 200.639C37.465 198.241 39.471 194.078 41.319 191.389C58.21 166.812 93.583 167.912 109.206 193.5C117.157 206.524 115.804 225.478 106.04 237.83C101.52 243.548 92.906 249.518 86.265 251.532C80.47 253.291 68.944 253.324 63.5 251.598M83.782 235.449C88.483 233.489 93.602 228.612 96.15 223.667C98.716 218.687 98.829 208.549 96.376 203.379C94.097 198.578 88.638 193.174 84.105 191.233C78.791 188.957 69.376 189.208 64.432 191.758C59.23 194.44 53.592 200.676 51.995 205.514C49.995 211.574 51.206 221.015 54.639 226.126C57.6 230.535 63.954 235.566 67.5 236.309C72.267 237.307 80.35 236.881 83.782 235.449M144.881 219.993C142.26 218.462 140.756 213.771 141.912 210.732C144.074 205.044 144.495 205 196.801 205C246.175 205 250.009 205.281 252.021 209.039C253.724 212.221 253.137 216.523 250.686 218.826L248.371 221L197.436 220.97C167.289 220.952 145.839 220.553 144.881 219.993M151.92 167.042C139.043 164.716 125.711 152.796 121.956 140.25L120.683 136L64.477 136C9.128 136 8.229 135.968 5.635 133.927C2.096 131.144 2.014 125.896 5.455 122.455L7.909 120L64.296 120L120.683 120L121.956 115.75C123.688 109.965 129.362 101.653 134.366 97.573C140.468 92.598 146.137 89.968 153.468 88.713C181.459 83.918 205.688 110.273 198.623 137.83C193.447 158.019 172.95 170.84 151.92 167.042M170.622 149.177C178.993 144.873 183.434 137.53 183.429 128C183.419 106.942 158.711 96.144 143.812 110.685C130.256 123.917 135.589 145.098 153.994 151.124C157.845 152.385 166.311 151.394 170.622 149.177M229.635 133.927C226.096 131.144 226.014 125.896 229.455 122.455C231.656 120.253 232.743 120 240 120C247.257 120 248.344 120.253 250.545 122.455C252.093 124.002 253 126.052 253 128C253 129.948 252.093 131.998 250.545 133.545C248.353 135.738 247.246 136 240.18 136C233.692 136 231.796 135.627 229.635 133.927M68.917 81.953C54.692 80.287 40.075 68.124 36.835 55.258L35.763 51L22.832 51C6.11 51 3 49.603 3 42.093C3 40.517 3.986 38.423 5.314 37.174C7.459 35.16 8.639 35 21.346 35C33.52 35 35.128 34.803 35.647 33.25C37.963 26.311 42.365 18.792 46.579 14.579C59.89 1.268 81.071 -0.875 96.707 9.506C107.48 16.659 114.101 28.694 114.307 41.5C114.505 53.79 110.586 63.372 102.123 71.288C92.714 80.089 82.102 83.498 68.917 81.953M84.903 64.187C93.015 60.467 98.088 52.367 98.133 43.065C98.168 35.592 95.614 29.665 90.291 24.871C84.977 20.084 80.27 18.624 72.236 19.269C64.564 19.885 59.161 23.141 54.64 29.872C51.206 34.985 49.995 44.425 51.995 50.486C53.464 54.937 59.085 61.461 63.425 63.754C69.599 67.014 78.353 67.191 84.903 64.187M146 49.706C140.744 47.047 140.152 38.595 145.039 35.979C146.164 35.377 166.476 35 197.76 35L248.651 35L250.826 37.314C254.509 41.235 253.595 47.124 248.928 49.537C245.039 51.548 149.951 51.704 146 49.706" />
    <glyph glyph-name="check-2"
      unicode="&#xEA23;"
      horiz-adv-x="256" d="M163.772 132.264L96.009 64.529L60.222 100.264C28.863 131.578 24.059 136 21.392 136C15.729 136 12.057 129.789 14.579 124.475C15.451 122.636 33.483 104.152 54.649 83.399C87.131 51.551 93.578 45.667 95.988 45.667C98.427 45.667 109.114 55.832 169.372 115.469C208.163 153.86 240.6 186.744 241.454 188.544C243.948 193.799 240.234 200 234.593 200C231.879 200 223.908 192.376 163.772 132.264" />
    <glyph glyph-name="cart-simple"
      unicode="&#xEA24;"
      horiz-adv-x="256" d="M7.5 241.879C2.432 239.022 1.375 232.876 5.314 229.174C7.463 227.156 8.631 227 21.619 227L35.61 227L45.409 153.25C50.798 112.687 55.571 77.489 56.016 75.031C57.583 66.365 51.03 67 138.936 67L216.651 67L218.737 69.25C220.432 71.078 222.897 81.874 231.886 126.85C242.106 177.982 242.839 182.411 241.511 184.978C240.721 186.507 239.346 188.037 238.455 188.379C237.565 188.72 196.373 189 146.918 189C97.463 189 56.971 189.112 56.935 189.25C56.9 189.388 55.373 200.464 53.543 213.864C50.687 234.78 49.914 238.531 48.083 240.364C46.081 242.368 44.824 242.516 27.725 242.753C15.6 242.922 8.831 242.629 7.5 241.879M224.5 170.75C223.922 168.333 207 83.756 207 83.283C207 83.128 176.42 83 139.045 83L71.091 83L70.538 86.25C70.234 88.037 67.738 106.6 64.991 127.5C62.244 148.4 59.733 167.187 59.41 169.25L58.824 173L141.931 173L225.038 173L224.5 170.75M56.459 38.12C49.815 35.103 45.025 27.711 45.006 20.446C44.995 16.69 49.858 8.573 53.66 6C58.953 2.418 69.055 2.409 74.27 5.983C80.688 10.381 83.954 18.745 82.035 25.871C79.044 36.977 66.825 42.829 56.459 38.12M207.145 38.984C199.587 35.783 195 29.218 195 21.605C195 10.558 202.519 3 213.508 3C232.057 3 238.756 26.694 223.116 36.985C219.108 39.622 211.035 40.633 207.145 38.984" />
    <glyph glyph-name="cart-9"
      unicode="&#xEA25;"
      horiz-adv-x="256" d="M5.174 250.686C2.871 248.233 2.355 244.073 3.979 241.039C5.575 238.058 10.593 237 23.138 237L34.977 237L34.974 163.252L34.97 89.503L38.035 83.278C39.928 79.432 42.738 75.71 45.387 73.539C53.765 66.674 48.645 67 148.126 67C236.667 67 238.03 67.03 240 69C243.041 72.041 242.992 77.32 239.894 80.5C237.981 82.463 236.291 82.509 147.895 83L57.846 83.5L54.423 87.235C51.056 90.909 51 91.118 51 99.967L51 108.964L128.473 109.232C204.438 109.495 205.983 109.539 207.919 111.5C209.356 112.955 212.905 125.551 220.947 157.733C227.026 182.061 232 202.683 232 203.56C232 204.437 230.685 206.469 229.077 208.077L226.154 211L138.577 211L51 211L51 228.55C51 246.787 50.208 250.939 46.455 252.379C45.565 252.72 36.402 253 26.093 253C7.793 253 7.297 252.945 5.174 250.686M205.065 160.25L196.375 125.5L123.688 125.243L51 124.987L51 159.993L51 195L132.378 195L213.755 195L205.065 160.25M56.459 38.12C49.815 35.103 45.025 27.711 45.006 20.446C44.995 16.69 49.858 8.573 53.66 6C58.953 2.418 69.055 2.409 74.27 5.983C80.688 10.381 83.954 18.745 82.035 25.871C79.044 36.977 66.825 42.829 56.459 38.12M207.145 38.984C199.587 35.783 195 29.218 195 21.605C195 10.558 202.519 3 213.508 3C232.057 3 238.756 26.694 223.116 36.985C219.108 39.622 211.035 40.633 207.145 38.984" />
    <glyph glyph-name="card-update"
      unicode="&#xEA26;"
      horiz-adv-x="256" d="M18.905 249.75C11.826 246.158 6.121 239.685 4.106 232.959C3.278 230.196 2.959 207.877 2.974 153.898L2.997 78.687L5.4 73.438C8.563 66.528 14.823 60.584 21.613 58.044C26.742 56.124 29.268 56 63.085 56L99.095 56L101.548 58.646C104.735 62.085 104.734 66.357 101.545 69.545L99.091 72L64.513 72C26.188 72 24.668 72.216 21.026 78.19C19.121 81.314 19.007 83.175 19.004 111.25L19 141L132.75 141.004C244.384 141.007 246.56 141.044 249.75 142.989C251.857 144.274 253.008 145.767 253.022 147.235C253.388 185.21 252.789 229.973 251.873 233.031C249.878 239.689 244.148 246.171 237.095 249.75L230.69 253L128 253L25.31 253L18.905 249.75M229.961 235.52C235.685 232.56 237 229.635 237 219.865L237 211L128 211L19 211L19 219.777C19 229.49 19.953 231.781 25.367 235.082C28.395 236.929 31.813 236.993 127.8 236.996C213.519 236.999 227.491 236.798 229.961 235.52M237 176L237 157L128 157L19 157L19 176L19 195L128 195L237 195L237 176M183.5 113.927C169.251 111.798 153.651 100.162 147.038 86.729C142.621 77.756 142.03 72.661 145.037 69.46C147.313 67.037 151.052 66.315 154.488 67.634C155.397 67.983 157.829 71.92 159.892 76.384C165.698 88.945 174.388 95.935 186.949 98.148C195.946 99.733 206.774 96.784 214.399 90.674L217.299 88.35L207.529 81.224C198.851 74.895 198.024 74.033 200.129 73.511C209.323 71.231 242.542 64.209 242.819 64.486C243.275 64.941 247.793 109.401 247.429 109.843C247.274 110.032 243.851 107.758 239.823 104.79C235.795 101.822 231.93 99.048 231.233 98.627C230.434 98.144 228.214 99.405 225.233 102.036C214.098 111.858 198.809 116.215 183.5 113.927M140.948 52.858C139.804 44.93 136.629 8 137.091 8C137.453 8 141.138 10.475 145.281 13.5C149.423 16.525 153.092 19 153.435 19C153.778 19 156.381 17.164 159.22 14.92C175.575 1.992 196.797 -0.704 214 7.962C221.472 11.725 228.501 17.702 233.004 24.122C242.834 38.135 243.434 48.85 234.484 50.575C230.081 51.424 226.751 48.324 224.02 40.836C220.933 32.369 212.9 24.236 204.493 21.066C193.458 16.905 178.797 19.206 170.236 26.443L166.971 29.202L175.986 35.651C180.944 39.197 185 42.445 185 42.868C185 43.291 176.113 45.553 165.25 47.895C154.387 50.237 144.488 52.392 143.25 52.685C142.012 52.977 140.977 53.056 140.948 52.858" />
    <glyph glyph-name="basket"
      unicode="&#xEA27;"
      horiz-adv-x="256" d="M90.701 250.75C89.487 249.512 79.577 232.863 68.68 213.75L48.866 179L29.383 179C5.458 179 3 178.17 3 170.093C3 168.517 3.986 166.423 5.314 165.174L7.629 163L128.14 163L248.651 163L250.826 165.314C252.022 166.587 253 168.801 253 170.233C253 178.152 250.447 179 226.617 179L207.134 179L187.32 213.75C176.423 232.862 166.513 249.512 165.299 250.75C160.397 255.746 151.167 251.437 152.289 244.677C152.579 242.929 160.52 228.118 169.935 211.761C179.351 195.405 187.315 181.343 187.634 180.511C188.148 179.173 181.314 179 128 179C75.067 179 67.855 179.18 68.358 180.49C68.672 181.31 76.633 195.372 86.047 211.74C95.462 228.108 103.407 242.929 103.702 244.677C104.842 251.433 95.606 255.748 90.701 250.75M26.455 133.545L24 131.091L24 84.583C24 39.882 24.081 37.858 26.086 32.499C28.871 25.057 36.085 17.826 43.201 15.347C48.181 13.611 53.28 13.5 128 13.5C202.72 13.5 207.819 13.611 212.799 15.347C219.915 17.826 227.129 25.057 229.914 32.499C231.919 37.858 232 39.882 232 84.583L232 131.091L229.545 133.545C226.298 136.793 221.702 136.793 218.455 133.545L216 131.091L216 85.193L216 39.296L213.73 35.898C208.887 28.648 213.303 29.003 128 29.003C42.697 29.003 47.113 28.648 42.27 35.898L40 39.296L40 85.193L40 131.091L37.545 133.545C35.998 135.093 33.948 136 32 136C30.052 136 28.002 135.093 26.455 133.545M81.229 124.331C77.668 122.898 77 118.532 77 96.699C77 74.591 77.677 69.778 81.039 67.979C84.221 66.276 88.523 66.863 90.826 69.314C92.936 71.561 93 72.35 93 96.14C93 120.468 92.983 120.668 90.686 122.826C88.503 124.876 84.262 125.551 81.229 124.331M122.455 122.545L120 120.091L120 96L120 71.909L122.455 69.455C124.002 67.907 126.052 67 128 67C129.948 67 131.998 67.907 133.545 69.455L136 71.909L136 96L136 120.091L133.545 122.545C131.998 124.093 129.948 125 128 125C126.052 125 124.002 124.093 122.455 122.545M165.174 122.686C163.064 120.439 163 119.65 163 95.86C163 71.532 163.017 71.332 165.314 69.174C169.559 65.186 176.002 66.699 177.895 72.128C179.664 77.204 179.37 117.385 177.537 120.928C175.082 125.676 168.82 126.566 165.174 122.686" />
    <glyph glyph-name="check-circle-07"
      unicode="&#xEA28;"
      horiz-adv-x="256" d="M104.867 241.99C54.382 236.205 13.185 197.212 4.415 146.914C2.052 133.36 2.91 112.97 6.41 99.5C15.37 65.015 41.923 34.782 74.399 22.087C153.267 -8.743 236.462 51.008 231.615 135C230.708 150.731 228.852 158.871 225.519 161.738C222.559 164.284 221.165 164.488 217.657 162.89C213.012 160.773 212.577 158.36 214.523 145.49C218.456 119.471 213.472 95.312 199.908 74.651C186.032 53.515 165.434 38.639 141.372 32.378C127.133 28.673 107.811 28.664 93.5 32.357C64.205 39.915 38.544 61.713 26.997 88.848C20.763 103.498 19.525 109.982 19.525 128C19.525 142.175 19.845 145.611 21.796 152.384C27.045 170.606 35.51 185.2 48.158 197.834C76.353 225.999 117.958 234.242 155.714 219.143C158.582 217.996 163.344 215.694 166.295 214.029C172.821 210.346 176.287 210.196 179.545 213.455C184.639 218.548 181.91 223.698 171.108 229.374C151.047 239.916 126.899 244.515 104.867 241.99M174.52 175.016L117.5 118.032L97.948 137.516C79.959 155.444 78.115 157 74.873 157C70.288 157 67 153.642 67 148.959C67 145.841 69.004 143.543 90.274 122.274C111.912 100.635 113.797 99 117.103 99C120.465 99 123.92 102.229 180.196 157.958C214.537 191.966 240.425 218.376 241.37 220.367C243.943 225.79 240.328 232 234.596 232C231.892 232 224.989 225.453 174.52 175.016" />
    <glyph glyph-name="simple-remove"
      unicode="&#xEA29;"
      horiz-adv-x="256" d="M50.465 210.048C46.813 208.568 45.566 205.978 45.885 200.533C45.953 199.369 60.389 184.156 81.231 163.283L116.462 128L81.337 92.75C62.019 73.363 45.928 56.547 45.581 55.382C43.935 49.863 50.257 44.029 55.694 46.05C57.237 46.624 74.137 62.707 93.25 81.791L128 116.489L162.75 81.791C181.863 62.707 198.763 46.624 200.306 46.05C205.743 44.029 212.065 49.863 210.419 55.382C210.072 56.547 193.981 73.362 174.663 92.75L139.538 128L174.769 163.283C195.611 184.156 210.047 199.369 210.115 200.533C210.333 204.263 209.81 206.505 208.333 208.16C206.277 210.466 202.382 211.263 199.729 209.919C198.503 209.298 181.863 193.202 162.75 174.15L128 139.511L93.25 174.15C74.137 193.202 57.517 209.287 56.316 209.895C53.807 211.164 53.253 211.178 50.465 210.048" />
    <glyph glyph-name="circle-remove"
      unicode="&#xEA2A;"
      horiz-adv-x="256" d="M109.5 251.934C79.303 246.168 58.506 235.446 38.662 215.413C22.802 199.401 11.192 178.317 5.783 155.704C3.929 147.955 3.579 143.575 3.566 128C3.55 108.111 4.989 99.262 10.723 84C28.89 35.648 76.154 3.006 128 3.006C180.074 3.006 228.004 36.309 245.421 84.592C251.279 100.832 252.459 108.132 252.438 128C252.422 143.565 252.07 147.96 250.217 155.704C241.482 192.222 217.455 222.859 184.514 239.48C173.96 244.806 165.074 247.995 153.5 250.612C145.192 252.491 116.871 253.342 109.5 251.934M146.165 235.53C191.174 227.681 223.985 196.15 235.167 150C236.015 146.5 236.492 138.319 236.478 127.5C236.458 112.175 236.188 109.514 233.742 100.5C222.63 59.542 189.103 28.357 147.75 20.512C137.53 18.573 118.47 18.573 108.25 20.512C66.671 28.399 33.669 59.11 22.293 100.5C19.802 109.565 19.542 112.089 19.522 127.5C19.494 149.282 21.937 160.064 30.847 177.481C46.794 208.654 74.58 229.221 109.235 235.503C119.127 237.296 135.969 237.308 146.165 235.53M82.465 178.048C78.818 176.57 77.564 173.971 77.885 168.558C77.95 167.467 86.412 158.165 97.216 147.308L116.433 128L97.331 108.75C86.826 98.162 77.942 88.547 77.59 87.382C75.923 81.873 82.255 76.026 87.694 78.052C89.237 78.626 98.938 87.508 109.25 97.788L128 116.48L146.75 97.788C157.063 87.508 166.763 78.626 168.306 78.052C173.745 76.026 180.077 81.873 178.41 87.382C178.058 88.547 169.174 98.162 158.669 108.75L139.567 128L158.784 147.308C169.588 158.165 178.05 167.467 178.115 168.558C178.335 172.258 177.807 174.508 176.333 176.16C174.276 178.467 170.381 179.263 167.729 177.918C166.503 177.296 157.063 168.402 146.75 158.153L128 139.52L109.25 158.153C87.967 179.304 87.118 179.935 82.465 178.048" />
    <glyph glyph-name="alert-circle-exc"
      unicode="&#xEA2B;"
      horiz-adv-x="256" d="M109.5 251.934C79.303 246.168 58.506 235.446 38.662 215.413C22.802 199.401 11.192 178.317 5.783 155.704C3.929 147.955 3.579 143.575 3.566 128C3.55 108.111 4.989 99.262 10.723 84C28.89 35.648 76.154 3.006 128 3.006C180.074 3.006 228.004 36.309 245.421 84.592C251.279 100.832 252.459 108.132 252.438 128C252.422 143.565 252.07 147.96 250.217 155.704C241.482 192.222 217.455 222.859 184.514 239.48C173.96 244.806 165.074 247.995 153.5 250.612C145.192 252.491 116.871 253.342 109.5 251.934M146.165 235.53C191.174 227.681 223.985 196.15 235.167 150C236.015 146.5 236.492 138.319 236.478 127.5C236.458 112.175 236.188 109.514 233.742 100.5C222.63 59.542 189.103 28.357 147.75 20.512C137.53 18.573 118.47 18.573 108.25 20.512C66.671 28.399 33.669 59.11 22.293 100.5C19.802 109.565 19.542 112.089 19.522 127.5C19.494 149.282 21.937 160.064 30.847 177.481C46.794 208.654 74.58 229.221 109.235 235.503C119.127 237.296 135.969 237.308 146.165 235.53M122.455 186.545L120 184.091L120 149.601L120 115.112L122.342 112.389C125.555 108.654 130.445 108.654 133.658 112.389L136 115.112L136 149.601L136 184.091L133.545 186.545C131.998 188.093 129.948 189 128 189C126.052 189 124.002 188.093 122.455 186.545M120.789 82.102C112.622 74.806 120.473 61.552 131.148 64.614C135.486 65.858 138.455 70.136 138.455 75.145C138.455 80.651 133.841 85 128 85C125.035 85 123.212 84.268 120.789 82.102" />
    <glyph glyph-name="bug"
      unicode="&#xEA2C;"
      horiz-adv-x="256" d="M69.174 250.686C67.84 249.266 67 247.084 67 245.041C67 242.18 68.383 240.285 76.809 231.605L86.618 221.5L82.414 213.235C79.195 206.906 76.586 203.465 71.273 198.546L64.336 192.123L55.506 200.994C50.65 205.873 45.621 210.129 44.33 210.453C41.603 211.138 36.523 208.806 35.621 206.455C33.666 201.359 34.846 199.05 44.49 189.112L53.981 179.331L48.464 168.474C42.748 157.225 38.763 145.773 36.98 135.471C34.95 123.739 36.855 125 21.155 125C8.016 125 7.243 124.888 5.174 122.686C2.871 120.233 2.355 116.073 3.979 113.039C5.575 110.057 10.593 109 23.149 109L35 109L35 104.631C35 98.8 37.591 84.157 40.154 75.5C42.204 68.576 49.212 53.02 52.632 47.801L54.401 45.102L44.701 35.105C36.642 26.801 35 24.58 35 21.988C35 17.632 36.447 15.389 40.069 14.126C44.334 12.639 46.737 14.07 56.41 23.861L64.32 31.867L70.91 26.133C83.427 15.244 92.239 10.149 106 5.845C112.421 3.838 115.587 3.5 128 3.5C140.413 3.5 143.579 3.838 150 5.845C163.761 10.149 172.573 15.244 185.09 26.133L191.68 31.867L199.59 23.861C209.263 14.07 211.666 12.639 215.931 14.126C219.553 15.389 221 17.632 221 21.988C221 24.58 219.358 26.801 211.299 35.105L201.599 45.102L203.368 47.801C206.788 53.02 213.796 68.576 215.846 75.5C218.409 84.157 221 98.8 221 104.631L221 109L232.851 109C245.407 109 250.425 110.057 252.021 113.039C253.724 116.221 253.137 120.523 250.686 122.826C248.542 124.839 247.36 125 234.705 125C219.129 125 221.043 123.67 218.941 135.956C216.813 148.401 209.251 168.626 203.934 176.093L201.794 179.099L211.397 188.995C221.159 199.055 222.338 201.349 220.379 206.455C219.471 208.822 214.274 211.214 211.7 210.45C210.49 210.091 205.617 205.969 200.871 201.29L192.242 192.783L185.038 198.832C179.043 203.865 177.124 206.276 173.608 213.19L169.382 221.5L179.191 231.605C187.778 240.451 189 242.143 189 245.181C189 249.672 185.613 253 181.041 253C178.171 253 176.313 251.63 167.605 243.093L157.5 233.185L152.5 236.085C145.151 240.347 137.888 242.143 128 242.143C118.112 242.143 110.849 240.347 103.5 236.085L98.5 233.185L88.395 243.093C79.522 251.792 77.867 253 74.819 253C72.484 253 70.637 252.243 69.174 250.686M135.5 225.474C144.771 223.987 157.126 213.71 159.957 205.13C161.225 201.289 161.182 200.85 159.416 199.511C155.9 196.845 142.753 191.821 135.333 190.307C128.825 188.98 127.175 188.98 120.667 190.307C113.247 191.821 100.1 196.845 96.584 199.511C94.818 200.85 94.775 201.289 96.043 205.13C97.818 210.51 105.466 218.847 111.775 222.281C116.639 224.928 125.556 227.008 129.5 226.416C130.6 226.25 133.3 225.827 135.5 225.474M89.706 185.213C97.14 180.892 106.201 177.118 113.419 175.337L120 173.713L120 96.277L120 18.841L116.75 19.525C87.769 25.628 63.394 50.598 54.3 83.5C51.759 92.693 51.535 94.952 51.518 111.5C51.502 127.281 51.792 130.61 53.872 138.5C56.456 148.304 60.723 158.668 65.401 166.5C70.905 175.716 81.337 188 83.659 188C84.348 188 87.069 186.746 89.706 185.213M178.113 183.135C189.403 170.616 195.126 160.959 199.823 146.5C204.078 133.401 205.388 122.659 204.717 106.364C204.04 89.941 201.203 78.183 194.905 65.693C189.16 54.298 185.78 49.639 176.572 40.414C165.484 29.307 153.289 22.482 139.25 19.525L136 18.841L136 96.277L136 173.713L142.581 175.337C149.891 177.141 159.156 181.018 166 185.138C168.475 186.628 171.226 187.881 172.113 187.923C173 187.965 175.7 185.811 178.113 183.135" />
    <glyph glyph-name="share-66"
      unicode="&#xEA2D;"
      horiz-adv-x="256" d="M102.291 220.237C89.526 207.732 78.626 196.266 78.069 194.759C76.259 189.861 80.227 184 85.354 184C87.895 184 90.801 186.425 104.179 199.709L120 215.419L120 149.265L120 83.112L122.342 80.389C124.015 78.444 125.63 77.667 128 77.667C130.37 77.667 131.985 78.444 133.658 80.389L136 83.112L136 149.265L136 215.419L151.821 199.709C165.199 186.425 168.105 184 170.646 184C175.782 184 179.749 189.874 177.914 194.759C177.347 196.266 166.448 207.729 153.692 220.231C135.977 237.594 129.91 242.964 128 242.968C126.084 242.973 120.083 237.667 102.291 220.237M26.455 154.545L24 152.091L24 80L24 7.909L26.455 5.455L28.909 3L128 3L227.091 3L229.545 5.455L232 7.909L232 80L232 152.091L229.545 154.545L227.091 157L202.98 157C189.457 157 178.079 156.578 177.071 156.038C174.312 154.562 172.719 149.869 173.912 146.732C175.792 141.787 179.16 141 198.45 141L216 141L216 80L216 19L128 19L40 19L40 80L40 141L57.55 141C76.84 141 80.208 141.787 82.088 146.732C83.281 149.869 81.688 154.562 78.929 156.038C77.921 156.578 66.543 157 53.02 157L28.909 157L26.455 154.545" />
    <glyph glyph-name="time"
      unicode="&#xEA2F;"
      horiz-adv-x="256" d="M109.5 251.934C79.303 246.168 58.506 235.446 38.662 215.413C17.584 194.133 4.764 165.313 3.267 135.842C2.735 125.376 2.772 125.137 5.317 122.592C8.676 119.233 12.89 119.189 15.982 122.481C17.965 124.592 18.432 126.493 19.114 135.238C20.426 152.04 23.784 164.009 31.178 178.232C50.176 214.772 86.796 237 128 237C180.089 237 222.413 202.641 235.167 150C236.015 146.5 236.492 138.319 236.478 127.5C236.458 112.175 236.188 109.514 233.742 100.5C224.114 65.011 197.114 36.114 162.61 24.369C141.303 17.116 114.891 17.222 93.054 24.647C84.773 27.463 69.9 34.91 65.416 38.486L62.57 40.754L72.738 54.297L82.906 67.84L79.203 68.379C72.721 69.322 8.021 72.354 7.411 71.744C6.718 71.052 31.203 1.026 32.143 1.011C32.496 1.005 37.157 6.85 42.5 14C47.843 21.15 52.571 27 53.007 27C53.443 27 56.207 25.377 59.15 23.393C77.604 10.95 99.048 4.206 123.062 3.294C140.37 2.636 151.955 4.258 167.873 9.567C203.827 21.559 232.792 49.581 245.421 84.592C251.279 100.832 252.459 108.132 252.438 128C252.422 143.535 252.07 147.943 250.241 155.5C241.295 192.481 217.562 222.805 184.514 239.48C173.96 244.806 165.074 247.995 153.5 250.612C145.192 252.491 116.871 253.342 109.5 251.934M122.455 197.545L120 195.091L120 160.191L120 125.292L122.452 122.646L124.905 120L160 120L195.095 120L197.548 122.646C200.735 126.085 200.734 130.357 197.545 133.545L195.091 136L165.545 136L136 136L136 165.545L136 195.091L133.545 197.545C131.998 199.093 129.948 200 128 200C126.052 200 124.002 199.093 122.455 197.545" />
    <glyph glyph-name="coffee"
      unicode="&#xEA30;"
      horiz-adv-x="256" d="M101.174 250.686C99.16 248.541 99 247.362 99 234.64C99 221.395 99.087 220.822 101.455 218.455C104.563 215.346 108.111 215.332 111.694 218.412C114.393 220.731 114.513 221.232 114.844 231.505C115.247 244.043 114.601 248.399 111.944 251.056C109.214 253.786 103.916 253.604 101.174 250.686M51.354 242.234C46.499 241.452 45.52 238.725 45.223 225.148C44.92 211.297 45.675 208.403 50.151 206.257C53.297 204.748 58.511 206.218 60.021 209.039C61.295 211.42 61.295 236.58 60.021 238.961C58.892 241.07 54.479 242.737 51.354 242.234M157.357 241.999C152.815 240.186 152 237.422 152 223.833C152 211.934 152.151 210.935 154.342 208.389C157.555 204.654 162.445 204.654 165.658 208.389C167.852 210.939 168 211.926 168 224C168 235.966 167.839 237.066 165.75 239.363C163.081 242.299 160.298 243.173 157.357 241.999M6.763 177.435C5.257 176.618 3.75 174.85 3.412 173.507C3.075 172.164 3.014 159.688 3.276 145.783C3.802 117.859 4.562 113.311 11.415 97.062C18.978 79.128 35.863 59.755 52.704 49.687C79.977 33.382 114.64 30.454 145.009 41.889C166.522 49.989 187.616 69.032 198.57 90.241L203.094 99L216.421 99C225.763 99 231.031 99.453 234.037 100.513C240.616 102.834 246.453 108.217 249.924 115.165L253 121.319L252.968 147.41C252.935 174.786 252.836 175.429 248.316 177.837C246.689 178.703 215.917 178.99 127.816 178.96C25.116 178.925 9.139 178.724 6.763 177.435M194.389 145C194.328 135.375 193.72 124.8 193.037 121.5C186.428 89.568 164.081 64.586 133 54.385C125.082 51.786 123.336 51.592 107.5 51.548C87.824 51.493 82.748 52.509 68.5 59.36C46.527 69.925 28.752 90.794 21.939 114.027C20.096 120.311 19.67 124.802 19.26 142.255L18.773 163.011L106.637 162.755L194.5 162.5L194.389 145M237 142.882L237 122.765L233.118 118.882L229.235 115L218.509 115L207.783 115L208.392 117.426C209.687 122.585 210.966 139.041 210.983 150.75L211 163L224 163L237 163L237 142.882M7.5 17.845C2.442 15.079 1.373 8.877 5.314 5.174L7.629 3L106.38 3C168.882 3 205.803 3.359 206.961 3.979C211.848 6.595 211.256 15.047 206 17.706C202.641 19.405 10.598 19.54 7.5 17.845" />
    <glyph glyph-name="smile"
      unicode="&#xEA31;"
      horiz-adv-x="256" d="M109.5 251.934C79.303 246.168 58.506 235.446 38.662 215.413C22.802 199.401 11.192 178.317 5.783 155.704C3.929 147.955 3.579 143.575 3.566 128C3.55 108.111 4.989 99.262 10.723 84C28.89 35.648 76.154 3.006 128 3.006C180.074 3.006 228.004 36.309 245.421 84.592C251.279 100.832 252.459 108.132 252.438 128C252.422 143.565 252.07 147.96 250.217 155.704C241.482 192.222 217.455 222.859 184.514 239.48C173.96 244.806 165.074 247.995 153.5 250.612C145.192 252.491 116.871 253.342 109.5 251.934M146.165 235.53C191.174 227.681 223.985 196.15 235.167 150C236.015 146.5 236.492 138.319 236.478 127.5C236.458 112.175 236.188 109.514 233.742 100.5C222.63 59.542 189.103 28.357 147.75 20.512C137.53 18.573 118.47 18.573 108.25 20.512C66.671 28.399 33.669 59.11 22.293 100.5C19.802 109.565 19.542 112.089 19.522 127.5C19.494 149.282 21.937 160.064 30.847 177.481C46.794 208.654 74.58 229.221 109.235 235.503C119.127 237.296 135.969 237.308 146.165 235.53M73.45 158.593C63.361 154.199 60.978 140.787 68.882 132.882C80.117 121.647 98.528 131.71 95.572 147.471C93.82 156.807 82.462 162.519 73.45 158.593M169.45 158.593C159.361 154.199 156.978 140.787 164.882 132.882C176.117 121.647 194.528 131.71 191.572 147.471C189.82 156.807 178.462 162.519 169.45 158.593M90.318 101.409C87.899 98.989 87.768 98.386 88.34 92.258C90.465 69.51 112.084 53.023 134.639 56.951C152.404 60.044 165.803 74.365 167.59 92.166C168.219 98.436 168.106 98.985 165.675 101.416C160.552 106.538 152 103.096 152 95.911C152 83.61 140.347 72 128 72C115.653 72 104 83.61 104 95.911C104 103.101 95.447 106.538 90.318 101.409" />
    <glyph glyph-name="sad"
      unicode="&#xEA32;"
      horiz-adv-x="256" d="M109.5 251.934C79.303 246.168 58.506 235.446 38.662 215.413C22.802 199.401 11.192 178.317 5.783 155.704C3.929 147.955 3.579 143.575 3.566 128C3.55 108.111 4.989 99.262 10.723 84C28.89 35.648 76.154 3.006 128 3.006C180.074 3.006 228.004 36.309 245.421 84.592C251.279 100.832 252.459 108.132 252.438 128C252.422 143.565 252.07 147.96 250.217 155.704C241.482 192.222 217.455 222.859 184.514 239.48C173.96 244.806 165.074 247.995 153.5 250.612C145.192 252.491 116.871 253.342 109.5 251.934M146.165 235.53C191.174 227.681 223.985 196.15 235.167 150C236.015 146.5 236.492 138.319 236.478 127.5C236.458 112.175 236.188 109.514 233.742 100.5C222.63 59.542 189.103 28.357 147.75 20.512C137.53 18.573 118.47 18.573 108.25 20.512C66.671 28.399 33.669 59.11 22.293 100.5C19.802 109.565 19.542 112.089 19.522 127.5C19.494 149.282 21.937 160.064 30.847 177.481C46.794 208.654 74.58 229.221 109.235 235.503C119.127 237.296 135.969 237.308 146.165 235.53M73.45 158.593C63.361 154.199 60.978 140.787 68.882 132.882C80.117 121.647 98.528 131.71 95.572 147.471C93.82 156.807 82.462 162.519 73.45 158.593M169.45 158.593C159.361 154.199 156.978 140.787 164.882 132.882C176.117 121.647 194.528 131.71 191.572 147.471C189.82 156.807 178.462 162.519 169.45 158.593M119.195 102.933C103.543 99.851 90.08 84.563 88.433 68C87.832 61.961 87.968 61.305 90.345 58.75C95.348 53.374 103.992 56.947 104.006 64.396C104.028 76.627 115.589 88 128 88C134.186 88 139.364 85.675 144.654 80.521C149.905 75.405 151.983 70.84 151.994 64.396C152.008 56.947 160.652 53.374 165.655 58.75C168.032 61.305 168.168 61.961 167.567 68C165.876 85.012 152.471 99.876 136.006 102.999C129.928 104.152 125.291 104.133 119.195 102.933" />
    <glyph glyph-name="broken-heart"
      unicode="&#xEA33;"
      horiz-adv-x="256" d="M58.12 251.421C38.411 246.121 22.523 234.372 12.714 217.845C3.286 201.958 0.573 181.356 5.426 162.5C12.114 136.516 33.403 104.078 67.611 67.749C88.957 45.079 120.354 15.957 125.598 13.963C127.057 13.408 128.96 13.414 130.445 13.979C137.701 16.738 188.222 65.883 206.815 88.269C230.053 116.249 245.531 142.493 250.521 162.378C254.868 179.699 253.487 197.188 246.645 211.471C237.805 229.927 222.485 243.452 203 250.002C192.967 253.375 175.963 253.884 164.975 251.14C153.947 248.385 143.661 243.136 134.933 235.807L127.912 229.912L121.706 235.544C114.026 242.514 100.429 249.287 89.792 251.44C80.293 253.363 65.305 253.354 58.12 251.421M88.54 235.47C96.598 233.4 103.934 229.719 110.249 224.575C119.815 216.782 120.235 218.961 103.496 189.509C95.427 175.313 88.589 162.241 88.3 160.461C87.914 158.083 88.297 156.703 89.745 155.255C90.828 154.172 102.346 146.9 115.339 139.097L138.964 124.908L129.482 105.964C124.267 95.545 120 86.081 120 84.933C120 83.785 121.361 81.485 123.025 79.821C125.474 77.372 126.57 76.925 128.775 77.476C130.274 77.85 132.361 78.908 133.414 79.828C135.799 81.912 157 125.29 157 128.086C157 129.211 156.547 130.978 155.993 132.013C155.439 133.048 144.302 140.289 131.243 148.104C118.184 155.92 107.343 162.438 107.151 162.589C106.96 162.74 113.253 174.257 121.137 188.182C133.496 210.011 136.438 214.476 142.486 220.583C153.309 231.512 166.517 237 182 237C197.015 237 209.217 231.795 220.611 220.53C238.466 202.877 241.853 179.819 230.537 152.956C223.942 137.301 208.522 114.4 190.5 93.5C181.823 83.437 145.152 46.688 134.745 37.628L128 31.756L121.25 37.619C110.971 46.547 74.267 83.346 65.514 93.5C41.259 121.636 25.578 147.344 20.643 167.064C13.249 196.607 29.587 225.592 59 235.112C65.991 237.375 80.439 237.55 88.54 235.47" />
    <glyph glyph-name="pin-3"
      unicode="&#xEA35;"
      horiz-adv-x="256" d="M114.5 252.344C77.413 246.429 48.926 222.097 38.343 187.297C35.934 179.374 35.664 176.911 35.623 162.5C35.574 145.27 36.551 140.467 43.411 124.2C54.531 97.83 85.662 54.124 115.068 23.599C127.251 10.952 128.201 10.804 137.63 20.083C152.487 34.704 176.092 63.922 190.479 85.5C205.276 107.692 211.558 119.842 217.623 138C220.286 145.972 220.458 147.493 220.397 162.5C220.338 176.873 220.06 179.394 217.659 187.288C212.681 203.659 204.848 216.3 192.561 227.794C175.038 244.186 155.405 252.016 130.5 252.546C123.35 252.698 116.15 252.607 114.5 252.344M145.816 234.992C162.323 231.035 172.949 224.943 184.628 212.743C198.039 198.734 203.812 184.839 204.671 164.5C205.132 153.598 204.936 151.676 202.533 143.5C197.149 125.182 184.616 103.042 164.813 76.869C154.197 62.838 136.559 41.755 131.092 36.563L128 33.626L124.885 36.563C119.75 41.406 102.004 62.606 91.193 76.813C71.535 102.648 58.689 125.457 53.419 143.881C50.987 152.383 50.786 154.349 51.267 164.881C51.868 178.052 54.059 186.39 59.839 197.5C66.288 209.897 82.613 224.965 95.615 230.52C110.563 236.908 130.441 238.678 145.816 234.992M119.932 199.043C109.359 197.133 97.135 187.712 92.15 177.633C86.935 167.088 86.935 152.946 92.15 142.339C95.165 136.206 104.206 127.165 110.339 124.15C117.415 120.672 126.605 119.355 134.44 120.697C143.203 122.198 149.401 125.46 155.97 132.03C162.54 138.599 165.802 144.797 167.303 153.56C171.173 176.155 154.276 197.779 131.5 199.377C127.65 199.648 122.444 199.497 119.932 199.043M138.622 181.177C146.993 176.873 151.434 169.53 151.429 160C151.419 138.942 126.711 128.144 111.812 142.685C98.256 155.917 103.589 177.098 121.994 183.124C125.845 184.385 134.311 183.394 138.622 181.177" />
    <glyph glyph-name="marker-3"
      unicode="&#xEA36;"
      horiz-adv-x="256" d="M110 250.942C95.511 247.178 82.496 238.9 72.705 227.22C66.362 219.655 62.739 213.208 59.374 203.5C56.85 196.218 56.603 194.244 56.623 181.5C56.643 169.079 56.944 166.595 59.294 159.479C65.577 140.451 79.224 124.984 97.219 116.497C104.256 113.178 114.524 110 118.21 110C119.889 110 120 108.181 120 80.556C120 51.121 120.001 51.111 122.342 48.389C125.555 44.654 130.445 44.654 133.658 48.389C135.999 51.111 136 51.121 136 80.556C136 108.181 136.111 110 137.79 110C141.476 110 151.744 113.178 158.781 116.497C176.789 124.99 190.465 140.498 196.687 159.479C198.95 166.385 199.327 169.307 199.4 180.5C199.494 194.976 198.133 201.745 192.938 212.629C186.716 225.668 172.973 239.464 159.779 245.917C145.286 253.006 125.597 254.993 110 250.942M141.907 235.46C151.362 233.231 159.584 228.427 167.5 220.505C175.688 212.311 179.294 206.081 182.022 195.415C185.445 182.029 184.298 169.879 178.402 157.094C173.999 147.549 162.526 135.857 152.941 131.15C130.726 120.24 106.541 124.333 88.787 142.006C83.11 147.657 80.161 151.588 77.618 156.894C64.611 184.035 75.377 216.729 101.992 230.915C112.969 236.766 128.746 238.562 141.907 235.46M39.5 17.845C34.442 15.079 33.373 8.877 37.314 5.174L39.629 3L128.14 3L216.651 3L218.826 5.314C220.968 7.595 221.595 11.286 220.379 14.455C218.62 19.04 219.393 19.002 127.8 18.97C67.266 18.948 40.903 18.613 39.5 17.845" />
    <glyph glyph-name="globe-2"
      unicode="&#xEA37;"
      horiz-adv-x="256" d="M176.736 251.75C174.547 250.088 172.895 245.45 173.711 243.259C174.072 242.291 179.349 236.55 185.44 230.5C193.309 222.683 197.927 217.11 201.399 211.242C213.688 190.47 218.431 166.143 214.532 143.881C207.679 104.746 179.565 74.312 141.011 64.292C129.232 61.23 108.937 60.805 97.257 63.375C75.702 68.119 55.226 80.563 41.458 97.288C36.404 103.427 34.469 104.482 30.047 103.51C26.66 102.766 25.413 101.495 24.499 97.852C23.505 93.89 26.005 90.026 36.293 79.628C54.553 61.171 79.303 48.766 102.635 46.376L109 45.724L109 32.362L109 19L85.423 19L61.846 19L58.923 16.077C55.316 12.47 55.152 8.757 58.455 5.455L60.909 3L117.02 3C151.709 3 173.83 3.374 174.961 3.979C177.782 5.489 179.252 10.703 177.743 13.849C175.471 18.588 173.276 18.969 148.221 18.985L124.942 19L125.221 32.247L125.5 45.494L131.5 46.222C145.727 47.948 163.518 54.047 175.384 61.268C221.673 89.435 241.94 141.589 226.769 193.5C222.047 209.656 210.854 228.146 198.039 240.961C186.983 252.017 181.047 255.023 176.736 251.75M102.5 230.587C82.746 226.004 65.295 213.503 55.179 196.689C42.286 175.259 42.237 145.604 55.058 123.841C69.039 100.11 94.069 86.719 121.482 88.304C142.857 89.541 161.151 99.143 174.109 115.928C187.067 132.713 192.047 154.964 187.571 176.077C182.415 200.401 162.15 221.778 136.964 229.463C129.433 231.76 110.254 232.386 102.5 230.587M136.015 212.802C158.611 204.537 173 183.995 173 160C173 144.28 167.91 131.933 156.845 120.81C138.905 102.777 110.9 98.906 89.426 111.491C78.134 118.108 67.701 130.942 63.87 142.928C60.934 152.113 60.934 167.887 63.87 177.072C69.494 194.668 86.579 210.521 104.263 214.553C113.324 216.619 127.754 215.823 136.015 212.802" />
    <glyph glyph-name="world-2"
      unicode="&#xEA38;"
      horiz-adv-x="256" d="M119 252.856C70.056 248.863 29.286 218.533 11.005 172.514C4.843 157.001 1.904 136.853 3.185 118.901C8.89 38.945 88.881 -15.486 165.232 8.633C202.123 20.287 232.658 49.211 245.421 84.592C251.279 100.832 252.459 108.132 252.438 128C252.422 143.565 252.07 147.96 250.217 155.704C241.727 191.201 218.546 221.459 186.974 238.256C165.694 249.577 141.778 254.714 119 252.856M90.032 226.345C77.089 212.183 66.825 192.419 61.334 171.085C59.345 163.357 56.178 143.152 56.031 137.25C56.007 136.296 51.598 136 37.406 136L18.812 136L19.507 141.25C24.287 177.382 46.804 209.569 78.315 225.316C84.525 228.418 92.867 231.872 94.35 231.953C94.818 231.979 92.875 229.455 90.032 226.345M172.403 227.785C206.804 212.876 231.413 179.65 236.493 141.25L237.188 136L218.594 136C208.367 136 200 136.243 200 136.539C200 140.293 197.408 158.649 195.84 166C190.972 188.815 179.362 211.954 165.037 227.388C159.852 232.974 160.367 233.001 172.403 227.785M120 183.5L120 136L95.972 136L71.944 136L72.571 142.75C75.163 170.662 85.404 196.514 101.193 215C105.174 219.662 117.932 230.954 119.25 230.983C119.662 230.992 120 209.625 120 183.5M144.24 225.237C166.626 206.182 179.335 179.159 183.503 141.75L184.144 136L160.072 136L136 136L136 183.5C136 209.625 136.338 230.994 136.75 230.987C137.162 230.98 140.533 228.392 144.24 225.237M56.468 114.25C57.722 102.453 60.277 88.269 62.574 80.341C67.931 61.856 78.116 42.902 89.447 30.336C96.272 22.766 95.753 22.68 82.084 29.109C58.717 40.099 41.429 57.091 30.024 80.277C25.093 90.3 20.802 104.329 19.479 114.75L18.812 120L37.334 120L55.856 120L56.468 114.25M120 72.5C120 46.375 119.72 25 119.378 25C117.984 25 105.968 35.48 101.818 40.316C85.051 59.854 75.721 83.439 72.57 114.25L71.983 120L95.991 120L120 120L120 72.5M183.43 114.25C180.951 90.005 173.928 68.196 163.707 53C157.755 44.151 150.071 35.407 143.71 30.246C140.154 27.36 136.964 25 136.622 25C136.28 25 136 46.375 136 72.5L136 120L160.009 120L184.017 120L183.43 114.25M236.521 114.75C233.28 89.22 219.037 62.453 199.952 46.027C191.044 38.361 184.285 33.98 173.654 28.983C160.394 22.751 159.701 22.798 165.84 29.515C179.784 44.772 191.026 67.438 195.84 90C197.408 97.351 200 115.707 200 119.461C200 119.757 208.367 120 218.594 120L237.188 120L236.521 114.75" />
    <glyph glyph-name="phone-2"
      unicode="&#xEA39;"
      horiz-adv-x="256" d="M38.5 241.137C36.85 240.089 28.188 231.835 19.25 222.797L3 206.363L3 197.233C3 184.922 5.451 166.87 8.944 153.445C27.609 81.725 81.904 27.407 153.259 9.072C166.676 5.624 185.917 3 197.775 3L206.367 3L223.294 19.75C240.25 36.528 243.067 40.197 242.255 44.448C242.003 45.762 229.677 58.842 213.12 75.363C187.058 101.368 184.115 104 181.1 104C178.171 104 176.076 102.322 163.355 89.789L148.932 75.578L112.466 112.034C92.41 132.085 76 148.923 76 149.452C76 149.981 82.3 156.768 90 164.535C101.507 176.141 104 179.169 104 181.542C104 183.992 99.643 188.785 75.25 213.166C57.852 230.556 45.513 242.128 44 242.473C42.426 242.832 40.389 242.338 38.5 241.137M63.741 202.759C74.883 191.627 84 182.083 84 181.552C84 181.021 77.7 174.232 70 166.465C58.814 155.183 56 151.792 56 149.594C56 147.314 63.323 139.385 98.744 103.315C122.254 79.375 142.686 58.936 144.149 57.894C149.615 54.001 151.208 54.872 166.69 70.223L181.036 84.446L202.015 63.485L222.994 42.524L211.247 30.664L199.5 18.803L188.487 19.352C154.461 21.048 115.892 36.388 87 59.716C78.178 66.84 63.42 81.932 56.717 90.688C42.333 109.474 30.067 134.651 24.55 156.717C21.566 168.653 19 185.711 19 193.613L19 199.47L30.734 211.235C37.188 217.706 42.697 223 42.975 223C43.254 223 52.599 213.892 63.741 202.759" />
    <glyph glyph-name="check-square-11"
      unicode="&#xEA3A;"
      horiz-adv-x="256" d="M231.5 241.878C230.4 241.268 204.258 215.58 173.406 184.794L117.313 128.819L97.905 148.41C80.961 165.513 78.101 168 75.383 168C70.641 168 67 164.625 67 160.228C67 156.839 68.454 155.14 89.25 134.226C101.488 121.919 112.732 111.2 114.237 110.406C116.606 109.156 117.413 109.153 120.237 110.379C124.617 112.28 241.962 229.878 242.115 232.52C242.343 236.44 241.814 238.529 240.171 240.187C237.921 242.458 233.944 243.234 231.5 241.878M15.924 229.419L13.5 226.839L13.5 128L13.5 29.161L15.924 26.581L18.349 24L117.22 24L216.091 24L218.545 26.455L221 28.909L220.968 85.205C220.944 127.881 220.642 141.884 219.718 143.087C216.435 147.363 210.838 147.688 207.324 143.806C205.617 141.921 205.482 138.518 205.215 90.896L204.93 40L116.965 40L29 40L29 128L29 216L96.048 216L163.095 216L165.548 218.646C168.735 222.085 168.734 226.357 165.545 229.545L163.091 232L90.72 232L18.349 232L15.924 229.419" />
    <glyph glyph-name="wallet-90"
      unicode="&#xEA3B;"
      horiz-adv-x="256" d="M58.455 250.545C56.261 248.352 56 247.248 56 240.15L56 232.21L40.25 231.819C26.963 231.489 23.796 231.103 20 229.353C13.945 226.561 8.23 220.744 5.34 214.432L2.959 209.231L2.99 122.865C3.011 63.099 3.36 35.268 4.124 32.5C8.04 18.294 19.738 7.108 33.799 4.124C37.53 3.333 70.132 3 143.977 3L248.855 3L250.927 5.635C252.989 8.255 253 8.754 253 96.461L253 184.651L250.718 186.795C248.655 188.733 247.145 188.966 234.968 189.219L221.5 189.5L221.235 218.952C220.977 247.566 220.908 248.469 218.81 250.702L216.651 253L138.78 253L60.909 253L58.455 250.545M205 213L205 189L138.5 189L72 189L72 213L72 237L138.5 237L205 237L205 213M56 202.5L56 189L44.75 189.024C30.913 189.053 26.528 190.011 22.7 193.838C16.645 199.893 18.594 211.18 26.27 214.517C28.488 215.482 33.651 215.934 42.75 215.961L56 216L56 202.5M24.409 174.489C28.621 173.211 44.055 173 133.159 173L237 173L237 95.981L237 18.963L135.75 19.231L34.5 19.5L30.5 22.12C25.318 25.515 23.556 27.552 21.077 33.018C19.096 37.384 19.043 39.286 19.022 106.75C19.01 144.838 19.113 175.995 19.25 175.989C19.387 175.983 21.709 175.308 24.409 174.489M172.994 124.066C161.124 120.455 152 108.257 152 96C152 84.952 159.224 74.076 169.768 69.249C174.48 67.091 176.244 66.817 182.857 67.212C191.7 67.74 196.634 69.897 202.201 75.665C210.402 84.164 212.74 97.029 208.038 107.779C205.2 114.266 197.773 121.208 191.316 123.408C186.465 125.061 177.342 125.388 172.994 124.066M188.514 106.991C192.018 104.826 194.333 100.453 194.333 96C194.333 81.391 173.841 77.975 169.031 91.783C167.739 95.492 167.739 96.508 169.031 100.217C171.803 108.176 181.271 111.468 188.514 106.991" />
    <glyph glyph-name="credit-card"
      unicode="&#xEA3C;"
      horiz-adv-x="256" d="M21.329 229.907C14.781 227.39 8.495 221.322 5.376 214.509L2.949 209.208L2.976 127.94L3.004 46.671L5.403 41.43C8.564 34.527 14.826 28.583 21.613 26.044C26.981 24.035 28.807 24 128 24C227.193 24 229.019 24.035 234.387 26.044C241.174 28.583 247.436 34.527 250.597 41.43L252.996 46.671L253.024 127.94L253.051 209.208L250.624 214.509C247.438 221.469 241.193 227.41 234.387 229.956C229.015 231.966 227.26 231.999 127.712 231.948C29.164 231.897 26.364 231.843 21.329 229.907M229.51 214.56C235.107 212.222 236.992 207.989 236.996 197.75L237 189L128 189L19 189L19.004 197.75C19.008 207.868 20.873 212.171 26.27 214.517C31.161 216.644 224.426 216.684 229.51 214.56M237 160L237 147L128 147L19 147L19 160L19 173L128 173L237 173L237 160M236.996 90.25C236.993 51.141 236.911 49.367 234.974 46.19C231.025 39.713 235.991 40 128 40C20.009 40 24.975 39.713 21.026 46.19C19.089 49.367 19.007 51.141 19.004 90.25L19 131L128 131L237 131L236.996 90.25M48.881 91.993C46.26 90.462 44.756 85.771 45.912 82.732C47.935 77.411 50.38 77 80 77C109.62 77 112.065 77.411 114.088 82.732C115.281 85.869 113.688 90.562 110.929 92.038C108.579 93.296 51.039 93.254 48.881 91.993M186.073 90.365C183.352 86.907 183.453 83.748 186.392 80.331C188.542 77.831 189.528 77.518 196.142 77.236C204.42 76.883 207.803 78.106 209.743 82.151C211.252 85.297 209.782 90.511 206.961 92.021C205.955 92.559 201.31 93 196.638 93C188.654 93 188.021 92.842 186.073 90.365" />
    <glyph glyph-name="payment"
      unicode="&#xEA3D;"
      horiz-adv-x="256" d="M72.188 250.967C65.655 248.646 58.593 243.566 54.064 237.929C50.204 233.127 46.059 223.819 46.024 219.875C46.011 218.431 45.719 215.844 45.375 214.125L44.75 211L27.325 211C9.219 211 5.059 210.202 3.621 206.455C3.28 205.565 3 179.723 3 149.029C3 95.596 3.081 93.121 4.909 90.861C6.769 88.562 7.326 88.487 26.159 88L45.5 87.5L46.231 80.172C49.87 43.676 79.231 11.89 116.226 4.394C129.088 1.788 147.713 2.829 160.017 6.841C168.619 9.646 179.336 15.159 186 20.207C197.461 28.888 208.798 43.647 214.378 57.152C220.698 72.448 221 75.646 221 127.269C221 172.452 220.949 173.678 218.972 175.799C216.1 178.882 213.086 179.364 205.094 178.016C186.238 174.835 169.971 160.397 164.593 142.068C163.553 138.523 163 132.745 163 125.43L163 114.223L159.25 113.538C157.188 113.162 152.308 111.329 148.407 109.465C140.185 105.536 129.669 95.228 125.509 87.017C122.566 81.211 120.036 71.252 120.015 65.396C119.985 57.195 128.252 52.932 133.404 58.491C135.069 60.287 135.893 62.706 136.358 67.155C137.202 75.23 140.766 82.819 146.325 88.378C151.987 94.04 156.899 96.549 165.054 97.943C168.599 98.55 172.542 99.276 173.816 99.558C177.81 100.443 179 105.35 179 120.93C179 132.599 179.341 135.837 181.054 140.414C183.616 147.262 190.766 155.341 197.109 158.555C205.655 162.886 205.002 165.979 204.983 121.25C204.963 76.227 204.557 72.595 198.078 59.5C188.261 39.657 169.465 24.679 149 20.391C137.45 17.971 120.888 18.89 110.024 22.555C84.75 31.081 64.975 55.313 62.124 81.25L61.382 88L74.737 88C87.582 88 88.184 88.094 90.545 90.455C93.986 93.896 93.904 99.144 90.365 101.927C87.816 103.933 86.617 104 53.365 104L19 104L19 149.5L19 195L128 195L237 195L237 140.065C237 107.506 237.39 84.105 237.957 82.613C239.382 78.865 244.04 76.769 247.931 78.126C249.642 78.722 251.483 80.033 252.021 81.039C253.56 83.915 253.269 205.067 251.718 207.087C249.08 210.523 246.271 211 228.691 211L211.25 211L210.625 214.125C210.281 215.844 209.989 218.431 209.976 219.875C209.941 223.726 205.829 233.086 202.172 237.636C197.343 243.646 189.698 248.993 182.917 251.103C177.262 252.863 173.235 252.995 127.161 252.927C81.144 252.859 77.11 252.715 72.188 250.967M178.321 235.928C182.94 234.645 189.486 228.945 191.941 224.068C192.929 222.106 194.049 218.362 194.43 215.75L195.123 211L128 211L60.877 211L61.57 215.75C62.886 224.775 69.005 232.815 76.625 235.531C81.548 237.286 172.157 237.64 178.321 235.928M120.459 166.12C113.815 163.103 109.025 155.711 109.006 148.446C108.995 144.69 113.858 136.573 117.66 134C122.953 130.418 133.055 130.409 138.27 133.983C144.688 138.381 147.954 146.745 146.035 153.871C143.928 161.695 135.911 167.956 128 167.956C126.075 167.956 122.681 167.13 120.459 166.12" />
    <glyph glyph-name="tag"
      unicode="&#xEA3E;"
      horiz-adv-x="256" d="M5.174 250.686C3 248.371 3 248.369 3 196.954L3 145.536L67.75 80.666C105.742 42.604 133.849 15.211 135.763 14.379C138.591 13.151 139.391 13.156 141.763 14.416C145.681 16.498 241.678 113.058 242.456 115.7C242.823 116.948 242.461 119.112 241.619 120.7C240.803 122.24 210.959 152.638 175.299 188.25L110.464 253L58.906 253L7.349 253L5.174 250.686M163.501 176.999L223.495 116.998L181.249 74.751L139.002 32.505L79.001 92.499L19 152.494L19 194.747L19 237L61.253 237L103.506 237L163.501 176.999M69.92 209.937C49.43 206.706 38.832 183.272 49.94 165.756C54.976 157.815 65.286 152 74.329 152C82.607 152 88.839 154.679 95.08 160.92C103.921 169.761 106.19 180.071 101.849 191.675C97.017 204.59 83.834 212.13 69.92 209.937M81.798 192.327C83.061 191.537 84.972 189.453 86.044 187.696C91.555 178.657 83.951 167.213 73.174 168.325C65.337 169.134 60.22 176.607 62.024 184.608C63.972 193.243 74.04 197.173 81.798 192.327" />
    <glyph glyph-name="tag-cut"
      unicode="&#xEA3F;"
      horiz-adv-x="256" d="M21.24 234.74L3 216.48L3 175.987L3 135.494L63.92 74.58C117.41 21.096 125.205 13.667 127.84 13.667C130.462 13.667 137.733 20.467 185.371 67.469C215.867 97.558 240.604 122.754 241.497 124.635C242.965 127.729 242.961 128.28 241.442 131.482C240.482 133.503 214.857 159.719 180.349 193.982L120.91 253L80.195 253L39.48 253L21.24 234.74M169.001 182.499L223.495 127.998L175.749 80.251L128.002 32.505L73.501 86.999L19 141.493L19 175.983L19 210.473L32.236 223.737L45.472 237L79.99 237L114.507 237L169.001 182.499M69.92 209.937C49.43 206.706 38.832 183.272 49.94 165.756C54.976 157.815 65.286 152 74.329 152C82.607 152 88.839 154.679 95.08 160.92C103.921 169.761 106.19 180.071 101.849 191.675C97.017 204.59 83.834 212.13 69.92 209.937M81.798 192.327C83.061 191.537 84.972 189.453 86.044 187.696C91.555 178.657 83.951 167.213 73.174 168.325C65.337 169.134 60.22 176.607 62.024 184.608C63.972 193.243 74.04 197.173 81.798 192.327" />
    <glyph glyph-name="tag-content"
      unicode="&#xEA40;"
      horiz-adv-x="256" d="M5.174 250.686C3 248.371 3 248.369 3 196.954L3 145.536L67.75 80.666C105.742 42.604 133.849 15.211 135.763 14.379C138.591 13.151 139.391 13.156 141.763 14.416C145.681 16.498 241.678 113.058 242.456 115.7C242.823 116.948 242.461 119.112 241.619 120.7C240.803 122.24 210.959 152.638 175.299 188.25L110.464 253L58.906 253L7.349 253L5.174 250.686M163.501 176.999L223.495 116.998L181.249 74.751L139.002 32.505L79.001 92.499L19 152.494L19 194.747L19 237L61.253 237L103.506 237L163.501 176.999M69.92 209.937C49.43 206.706 38.832 183.272 49.94 165.756C54.976 157.815 65.286 152 74.329 152C82.607 152 88.839 154.679 95.08 160.92C103.921 169.761 106.19 180.071 101.849 191.675C97.017 204.59 83.834 212.13 69.92 209.937M81.798 192.327C83.061 191.537 84.972 189.453 86.044 187.696C91.555 178.657 83.951 167.213 73.174 168.325C65.337 169.134 60.22 176.607 62.024 184.608C63.972 193.243 74.04 197.173 81.798 192.327M133.174 154.686C131.83 153.255 131 151.085 131 149.002C131 145.985 132.748 143.867 147.75 128.704C166.088 110.17 169.202 108.019 174.056 110.529C177.885 112.509 179.493 116.395 177.989 120.027C177.383 121.49 169.121 130.408 159.629 139.844C143.862 155.517 142.067 157 138.86 157C136.483 157 134.646 156.252 133.174 154.686M101.174 122.686C99.83 121.255 99 119.085 99 117.002C99 113.985 100.748 111.867 115.75 96.704C134.088 78.17 137.202 76.019 142.056 78.529C145.885 80.509 147.493 84.395 145.989 88.027C145.383 89.49 137.121 98.408 127.629 107.844C111.862 123.517 110.067 125 106.86 125C104.483 125 102.646 124.252 101.174 122.686" />
    <glyph glyph-name="flag-diagonal-33"
      unicode="&#xEA41;"
      horiz-adv-x="256" d="M182 245.279C181.175 244.947 178.25 242.999 175.5 240.95C163.007 231.643 156.759 230.115 126.5 228.966C99.936 227.957 92.247 226.724 82.452 221.902C70.961 216.245 55 198.935 55 192.13C55 189.209 101.294 106.396 104.686 103.25C107.091 101.02 110.327 100.421 113.466 101.625C114.362 101.969 116.835 104.782 118.96 107.875C126.542 118.91 134.442 125.075 144.408 127.733C147.399 128.53 159.608 129.477 174 130.026C193.31 130.764 200.195 131.403 206.5 133.041C217.575 135.918 228.131 141.35 234.677 147.541C239.304 151.916 240.095 153.157 239.517 155.135C238.582 158.336 192.182 241.06 190.128 243.187C188.262 245.121 184.201 246.166 182 245.279M201.807 190.98C212.363 172.269 221 156.751 221 156.495C221 156.238 218.377 154.704 215.17 153.086C204.745 147.823 198.693 146.833 171.5 145.941C144.486 145.055 139.308 144.203 128.859 138.929C125.687 137.328 120.234 133.344 116.741 130.076L110.389 124.135L91.608 157.506C77.99 181.703 73.001 191.427 73.46 192.875C74.415 195.883 85.128 205.37 90.333 207.816C97.916 211.381 102.451 212.009 127.5 212.964C154.47 213.992 162.742 215.49 174 221.386C177.575 223.258 180.975 224.837 181.557 224.895C182.138 224.953 191.25 209.691 201.807 190.98M19.174 199.686C17.883 198.311 17 196.08 17 194.192C17 191.814 29.369 169.668 66.114 106.257C123.294 7.579 119.781 13.421 122.763 12.062C126.394 10.408 127.919 10.766 131.194 14.04C133.593 16.439 134.116 17.669 133.676 19.872C132.884 23.828 32.513 197.023 29.431 199.75C26.139 202.663 21.947 202.637 19.174 199.686" />
    <glyph glyph-name="triangle-right-17"
      unicode="&#xEA47;"
      horiz-adv-x="256" d="M58.573 229.664L56 227.091L56 127.998L56 28.905L58.735 26.37C60.712 24.538 62.304 23.938 64.485 24.204C68.767 24.726 198.791 122.319 199.623 125.636C199.95 126.936 199.95 129.064 199.623 130.364C198.775 133.743 69.14 230.941 64.471 231.698C61.807 232.131 60.636 231.727 58.573 229.664M177.5 128C177.5 127.521 153.762 109.323 124.75 87.56L72 47.991L72 128L72 208.009L124.75 168.44C153.762 146.677 177.5 128.479 177.5 128" />
    <glyph glyph-name="puzzle-10"
      unicode="&#xEA48;"
      horiz-adv-x="256" d="M95.5 251.598C79.752 246.604 68.15 232.539 67.168 217.25L66.767 211L39.033 211C10.438 211 5.858 210.472 3.979 206.961C3.394 205.868 3 191.087 3 170.24L3 135.349L5.25 133.293C6.573 132.085 10.045 130.803 13.676 130.182C20.911 128.945 26.825 125.374 30.277 120.157C33.502 115.285 34.143 113.026 34.143 106.543C34.143 93.389 25.826 84.856 10.694 82.485C8.601 82.157 6.014 81.014 4.944 79.944C3.092 78.092 3 76.329 3 42.674L3 7.349L5.314 5.174C7.6 3.027 8.065 3 42.814 3C76.33 3 78.092 3.092 79.944 4.944C81.014 6.014 82.157 8.601 82.485 10.694C83.71 18.514 85.216 22.233 88.734 26.127C93.059 30.915 96.995 33.121 102.837 34.033C116.378 36.146 127.896 27.552 130.13 13.667C130.748 9.832 131.922 6.649 133.236 5.25C135.349 3 135.349 3 170.24 3C191.087 3 205.868 3.394 206.961 3.979C210.472 5.858 211 10.438 211 39.033L211 66.767L217.25 67.168C230.351 68.009 243.396 77.27 249.408 89.997C253.238 98.104 254.119 109.494 251.578 118.05C247.017 133.407 232.596 145.123 217 146.141L211.5 146.5L211 176.224C210.508 205.496 210.465 205.982 208.224 208.224C205.974 210.474 205.609 210.504 176.539 210.805L147.13 211.11L146.437 216.805C144.441 233.206 133.267 246.981 118.265 251.532C112.47 253.291 100.944 253.324 95.5 251.598M115.782 235.449C123.114 232.391 129.546 224.069 130.059 216.979C130.197 215.065 129.96 210.438 129.533 206.695C128.814 200.408 128.93 199.703 131.052 197.445L133.349 195L164.174 195L195 195L195 164.174L195 133.349L197.445 131.052C199.703 128.93 200.408 128.814 206.695 129.533C215.658 130.556 219.7 130.194 224.047 127.976C228.805 125.549 234.459 119.17 236.005 114.486C237.912 108.707 236.795 99.22 233.614 94.181C228.016 85.312 219.259 81.749 207.743 83.654C201.374 84.707 196.799 83.526 195.65 80.529C195.292 79.598 195 65.365 195 48.901L195 18.965L170.282 19.233L145.563 19.5L144.511 23C140.418 36.624 126.948 47.958 112.524 49.916C96.786 52.051 81.685 45.299 73.052 32.265C71.322 29.653 69.425 25.601 68.835 23.258L67.763 19L43.381 19L19 19L19 43.455L19 67.909L22.524 68.571C27.735 69.548 37.274 76.141 41.845 81.923C51.788 94.502 53.176 112.487 45.291 126.594C40.901 134.449 31.333 141.76 20.75 145.344C19.147 145.887 19 147.998 19 170.469L19 195L49.066 195C66.765 195 79.884 195.403 80.961 195.979C83.784 197.49 85.049 202.241 83.816 206.704C82.13 212.809 83.365 221.251 86.661 226.159C89.603 230.54 95.963 235.568 99.5 236.309C104.267 237.307 112.35 236.881 115.782 235.449" />
    <glyph glyph-name="triangle-right-17-2"
      unicode="&#xEA49;"
      horiz-adv-x="256" d="M70.4 232.5333333333334C67.168 234.9546666666667 62.848 235.3493333333334 59.232 233.5466666666667C55.616 231.7333333333334 53.3333333333333 228.0426666666667 53.3333333333333 224V32C53.3333333333333 27.9573333333333 55.616 24.2666666666667 59.232 22.4533333333333C60.736 21.7066666666667 62.3786666666667 21.3333333333333 64 21.3333333333333C66.2613333333333 21.3333333333333 68.5226666666667 22.0586666666667 70.4 23.4666666666667L198.4 119.4666666666667C201.088 121.472 202.6666666666667 124.64 202.6666666666667 128S201.088 134.5173333333334 198.4 136.5333333333333L70.4 232.5333333333334z" />
    <glyph glyph-name="btn-play"
      unicode="&#xEA4A;"
      horiz-adv-x="256" d="M109.5 251.934C79.303 246.168 58.506 235.446 38.662 215.413C22.802 199.401 11.192 178.317 5.783 155.704C3.929 147.955 3.579 143.575 3.566 128C3.55 108.111 4.989 99.262 10.723 84C28.89 35.648 76.154 3.006 128 3.006C180.074 3.006 228.004 36.309 245.421 84.592C251.279 100.832 252.459 108.132 252.438 128C252.422 143.565 252.07 147.96 250.217 155.704C241.482 192.222 217.455 222.859 184.514 239.48C173.96 244.806 165.074 247.995 153.5 250.612C145.192 252.491 116.871 253.342 109.5 251.934M146.165 235.53C191.174 227.681 223.985 196.15 235.167 150C236.015 146.5 236.492 138.319 236.478 127.5C236.458 112.175 236.188 109.514 233.742 100.5C222.63 59.542 189.103 28.357 147.75 20.512C137.53 18.573 118.47 18.573 108.25 20.512C66.671 28.399 33.669 59.11 22.293 100.5C19.802 109.565 19.542 112.089 19.522 127.5C19.494 149.282 21.937 160.064 30.847 177.481C46.794 208.654 74.58 229.221 109.235 235.503C119.127 237.296 135.969 237.308 146.165 235.53M103.5 177.845C98.945 175.354 99 175.96 99 127.997C99 84.021 99.071 82.301 100.966 80.267C103.437 77.615 106.128 76.736 108.737 77.729C109.852 78.153 125.648 88.4 143.84 100.5C167.518 116.249 177.238 123.26 178.048 125.175C180.329 130.563 178.508 132.156 142.515 156.25C123.823 168.763 107.848 178.986 107.015 178.97C106.182 178.953 104.6 178.447 103.5 177.845M137.75 140.166C147.238 133.851 155 128.376 155 128C155 127.458 134.706 113.599 117.75 102.56L115 100.77L115 128L115 155.23L117.75 153.44C119.263 152.455 128.262 146.482 137.75 140.166" />
    <glyph glyph-name="btn-play-2"
      unicode="&#xEA4B;"
      horiz-adv-x="256" d="M109.5 251.934C79.303 246.168 58.506 235.446 38.662 215.413C22.802 199.401 11.192 178.317 5.783 155.704C3.929 147.955 3.579 143.575 3.566 128C3.55 108.111 4.989 99.262 10.723 84C28.89 35.648 76.154 3.006 128 3.006C180.074 3.006 228.004 36.309 245.421 84.592C251.279 100.832 252.459 108.132 252.438 128C252.422 143.565 252.07 147.96 250.217 155.704C241.482 192.222 217.455 222.859 184.514 239.48C173.96 244.806 165.074 247.995 153.5 250.612C145.192 252.491 116.871 253.342 109.5 251.934M146.165 235.53C191.174 227.681 223.985 196.15 235.167 150C236.015 146.5 236.492 138.319 236.478 127.5C236.458 112.175 236.188 109.514 233.742 100.5C222.63 59.542 189.103 28.357 147.75 20.512C137.53 18.573 118.47 18.573 108.25 20.512C66.671 28.399 33.669 59.11 22.293 100.5C19.802 109.565 19.542 112.089 19.522 127.5C19.494 149.282 21.937 160.064 30.847 177.481C46.794 208.654 74.58 229.221 109.235 235.503C119.127 237.296 135.969 237.308 146.165 235.53M90.923 176.077L88 173.154L88 128.133L88 83.112L90.342 80.389C92.015 78.444 93.63 77.667 96 77.667C98.37 77.667 99.985 78.444 101.658 80.389L104 83.112L104 128.133L104 173.154L101.077 176.077C97.38 179.774 94.62 179.774 90.923 176.077M154.923 176.077L152 173.154L152 128.133L152 83.112L154.342 80.389C156.015 78.444 157.63 77.667 160 77.667C162.37 77.667 163.985 78.444 165.658 80.389L168 83.112L168 128.133L168 173.154L165.077 176.077C161.38 179.774 158.62 179.774 154.923 176.077" />
    <glyph glyph-name="menu-34"
      unicode="&#xEA4C;"
      horiz-adv-x="256" d="M7.5 209.845C2.442 207.079 1.373 200.877 5.314 197.174L7.629 195L128.14 195L248.651 195L250.826 197.314C252.968 199.595 253.595 203.286 252.379 206.455C250.591 211.115 253.709 211.002 127.8 210.97C44.101 210.948 8.915 210.619 7.5 209.845M5.635 133.927C2.096 131.144 2.014 125.896 5.455 122.455L7.909 120L128 120L248.091 120L250.545 122.455C253.986 125.896 253.904 131.144 250.365 133.927C247.733 135.998 247.614 136 128 136C8.386 136 8.267 135.998 5.635 133.927M5.174 58.686C1.186 54.441 2.699 47.998 8.128 46.105C12.61 44.543 243.39 44.543 247.872 46.105C253.394 48.03 254.905 54.862 250.686 58.826L248.371 61L127.86 61L7.349 61L5.174 58.686" />
    <glyph glyph-name="menu-left-2"
      unicode="&#xEA4D;"
      horiz-adv-x="256" d="M7.5 209.845C2.442 207.079 1.373 200.877 5.314 197.174L7.629 195L128.14 195L248.651 195L250.826 197.314C252.968 199.595 253.595 203.286 252.379 206.455C250.591 211.115 253.709 211.002 127.8 210.97C44.101 210.948 8.915 210.619 7.5 209.845M5.635 133.927C2.096 131.144 2.014 125.896 5.455 122.455L7.909 120L128 120L248.091 120L250.545 122.455C253.986 125.896 253.904 131.144 250.365 133.927C247.733 135.998 247.614 136 128 136C8.386 136 8.267 135.998 5.635 133.927M5.174 58.686C0.644 53.863 3.353 46.753 10.194 45.512C12.012 45.182 39.977 45.045 72.337 45.206L131.174 45.5L133.587 48.306C136.668 51.889 136.654 55.437 133.545 58.545L131.091 61L69.22 61L7.349 61L5.174 58.686" />
    <glyph glyph-name="heart-2-2"
      unicode="&#xEA4E;"
      horiz-adv-x="256" d="M63 241.929C38.273 238.208 15.147 218.572 6.691 194.118C4.258 187.082 3.628 183.389 3.258 174C2.535 155.606 6.293 142.661 16.436 128.607C18.86 125.248 44.176 99.212 72.694 70.75C121.131 22.407 124.772 19 128 19C131.228 19 134.869 22.407 183.306 70.75C211.824 99.213 237.14 125.248 239.564 128.607C249.707 142.661 253.465 155.606 252.742 174C252.372 183.389 251.742 187.082 249.309 194.118C242.005 215.241 223.983 232.772 202.586 239.567C178.275 247.287 149.984 240.621 132.25 222.994L128 218.77L123.75 222.994C108.406 238.245 85.653 245.337 63 241.929M92.135 224.026C100.491 221.427 109.887 215.164 115.765 208.273C124.802 197.68 124.772 197.703 128.823 198.342C131.403 198.748 133.246 199.898 135 202.193C146.54 217.298 159 224.663 176.116 226.496C200.691 229.128 225.65 213.196 234.134 189.461C236.761 182.111 237.732 166.842 236.078 158.876C235.437 155.787 233.328 149.939 231.391 145.88C228.048 138.873 225.343 135.971 177.935 88.5L128 38.5L78.065 88.5C30.657 135.971 27.952 138.873 24.609 145.88C19.942 155.662 18.65 162.433 19.246 173.996C20.035 189.315 25.199 200.494 36.663 211.697C42.908 217.8 55.856 224.551 64 225.95C71.649 227.264 84.565 226.381 92.135 224.026" />
    </font>
</defs>
</svg>
