<svg width="19" height="19" viewBox="0 0 19 19" fill="none" xmlns="http://www.w3.org/2000/svg">
<rect width="19" height="19" rx="4" fill="#36CB7B"/>
<path d="M5.11108 5.63886C5.11108 5.34738 5.34738 5.11108 5.63886 5.11108H13.0278C13.3192 5.11108 13.5555 5.34738 13.5555 5.63886V6.69442C13.5555 6.9859 13.3192 7.2222 13.0278 7.2222H5.63886C5.34738 7.2222 5.11108 6.9859 5.11108 6.69442V5.63886Z" stroke="white" stroke-linecap="round" stroke-linejoin="round"/>
<path d="M5.11108 9.86108C5.11108 9.5696 5.34738 9.33331 5.63886 9.33331H8.80553C9.09701 9.33331 9.33331 9.5696 9.33331 9.86108V13.0278C9.33331 13.3192 9.09701 13.5555 8.80553 13.5555H5.63886C5.34738 13.5555 5.11108 13.3192 5.11108 13.0278V9.86108Z" stroke="white" stroke-linecap="round" stroke-linejoin="round"/>
<path d="M11.4444 9.86108C11.4444 9.5696 11.6807 9.33331 11.9722 9.33331H13.0278C13.3192 9.33331 13.5555 9.5696 13.5555 9.86108V13.0278C13.5555 13.3192 13.3192 13.5555 13.0278 13.5555H11.9722C11.6807 13.5555 11.4444 13.3192 11.4444 13.0278V9.86108Z" stroke="white" stroke-linecap="round" stroke-linejoin="round"/>
</svg>
